# Blender 4.4.3
# www.blender.org
mtllib fence.mtl
o Cone
v 0.140198 0.041523 -0.220272
v 0.242830 0.041523 -0.127174
v 0.280396 0.041523 0.000000
v 0.242830 0.041523 0.127174
v 0.140198 0.041523 0.220272
v 0.302020 0.041523 -0.152773
v 0.302282 0.041523 0.000000
v 0.302020 0.041523 0.152773
v 0.302020 0.012088 -0.152773
v 0.302282 0.012088 0.000000
v 0.302020 0.012088 0.152773
v 0.000000 0.041523 -0.254348
v -0.140198 0.041523 -0.220272
v -0.242830 0.041523 -0.127174
v -0.280396 0.041523 0.000000
v -0.242830 0.041523 0.127174
v -0.140198 0.041523 0.220272
v 0.000000 0.041523 0.254348
v 0.000000 0.041523 -0.299017
v -0.302020 0.041523 -0.152773
v -0.302282 0.041523 0.000000
v -0.302020 0.041523 0.152773
v 0.000000 0.041523 0.305546
v 0.000000 0.012088 -0.299017
v -0.302020 0.012088 -0.152773
v -0.302282 0.012088 0.000000
v -0.302020 0.012088 0.152773
v 0.000000 0.012088 0.305546
v 0.007813 0.012088 -0.152773
v 0.007813 0.012088 0.152773
v 0.007820 0.012088 0.000000
v 0.009034 0.918934 -0.004731
v 0.005216 0.918934 -0.008195
v 0.000000 0.918934 -0.009463
v -0.005216 0.918934 -0.008195
v -0.009034 0.918934 -0.004731
v -0.010432 0.918934 -0.000000
v -0.009034 0.918934 0.004731
v -0.005216 0.918934 0.008195
v 0.000000 0.918934 0.009463
v 0.005216 0.918934 0.008195
v 0.009034 0.918934 0.004731
v 0.010432 0.918934 0.000000
v 0.027384 0.906220 0.000000
v 0.023715 0.906220 -0.012420
v 0.013692 0.906220 -0.021512
v 0.000000 0.906220 -0.024840
v -0.013692 0.906220 -0.021512
v -0.023715 0.906220 -0.012420
v -0.027384 0.906220 0.000000
v -0.023715 0.906220 0.012420
v -0.013692 0.906220 0.021512
v 0.000000 0.906220 0.024840
v 0.013692 0.906220 0.021512
v 0.023715 0.906220 0.012420
v 0.017712 0.915650 0.000000
v 0.015339 0.915650 -0.008033
v 0.008856 0.915650 -0.013914
v 0.000000 0.915650 -0.016067
v -0.008856 0.915650 -0.013914
v -0.015339 0.915650 -0.008033
v -0.017712 0.915650 0.000000
v -0.015339 0.915650 0.008033
v -0.008856 0.915650 0.013914
v 0.000000 0.915650 0.016067
v 0.008856 0.915650 0.013914
v 0.015339 0.915650 0.008033
v 0.301870 0.041523 -0.281731
v 0.282922 0.041523 -0.298908
v 0.285168 0.041523 -0.290787
v 0.282925 0.041523 0.300453
v 0.301870 0.041523 0.282943
v 0.285226 0.041523 0.291902
v 0.282922 0.012088 -0.298908
v 0.301870 0.012088 -0.281731
v 0.301870 0.012088 0.282943
v 0.282925 0.012088 0.300453
v -0.282922 0.041523 -0.298908
v -0.301870 0.041523 -0.281731
v -0.285168 0.041523 -0.290787
v -0.301870 0.041523 0.282943
v -0.282925 0.041523 0.300453
v -0.285226 0.041523 0.291902
v -0.301870 0.012088 -0.281731
v -0.282922 0.012088 -0.298908
v -0.282925 0.012088 0.300453
v -0.301870 0.012088 0.282943
v 0.212264 0.162145 -0.111166
v 0.168441 0.335085 -0.088216
v 0.124618 0.508024 -0.065265
v 0.080795 0.680964 -0.042314
v 0.093294 0.680964 0.000000
v 0.143897 0.508024 0.000000
v 0.194499 0.335085 0.000000
v 0.245101 0.162145 0.000000
v -0.080795 0.680964 -0.042314
v -0.124618 0.508024 -0.065265
v -0.168441 0.335085 -0.088216
v -0.212264 0.162145 -0.111166
v -0.245101 0.162145 0.000000
v -0.194499 0.335085 0.000000
v -0.143897 0.508024 0.000000
v -0.093294 0.680964 0.000000
v -0.046647 0.680964 -0.073290
v -0.071948 0.508024 -0.113042
v -0.097249 0.335085 -0.152794
v -0.122551 0.162145 -0.192546
v -0.046647 0.680964 0.073290
v -0.071948 0.508024 0.113042
v -0.097249 0.335085 0.152794
v -0.122551 0.162145 0.192546
v 0.000000 0.162145 0.222333
v 0.000000 0.335085 0.176431
v 0.000000 0.508024 0.130529
v 0.000000 0.680964 0.084628
v -0.080795 0.680964 0.042314
v -0.124618 0.508024 0.065265
v -0.168441 0.335085 0.088216
v -0.212264 0.162145 0.111166
v 0.122551 0.162145 -0.192546
v 0.097249 0.335085 -0.152794
v 0.071948 0.508024 -0.113042
v 0.046647 0.680964 -0.073290
v 0.000000 0.162145 -0.222333
v 0.000000 0.335085 -0.176431
v 0.000000 0.508024 -0.130529
v 0.000000 0.680964 -0.084628
v 0.212264 0.162145 0.111166
v 0.168441 0.335085 0.088216
v 0.124618 0.508024 0.065265
v 0.080795 0.680964 0.042314
v 0.046647 0.680964 0.073290
v 0.071948 0.508024 0.113042
v 0.097249 0.335085 0.152794
v 0.122551 0.162145 0.192546
vn 0.2542 0.8420 -0.4758
vn 0.4474 0.8498 -0.2787
vn 0.5201 0.8541 -0.0000
vn 0.4473 0.8498 0.2787
vn 0.2542 0.8420 0.4758
vn 0.7070 0.7072 -0.0010
vn 0.7075 0.7067 -0.0000
vn 0.7070 0.7072 0.0010
vn 0.7070 -0.7072 -0.0010
vn 0.7075 -0.7067 -0.0000
vn 0.7070 -0.7072 0.0010
vn -0.0000 0.8385 -0.5450
vn -0.2542 0.8420 -0.4758
vn -0.4474 0.8498 -0.2787
vn -0.5201 0.8541 -0.0000
vn -0.4473 0.8498 0.2787
vn -0.2542 0.8420 0.4758
vn -0.0000 0.8385 0.5450
vn -0.0000 0.7070 -0.7072
vn -0.7070 0.7072 -0.0010
vn -0.7075 0.7067 -0.0000
vn -0.7070 0.7072 0.0010
vn -0.0000 0.7031 0.7111
vn -0.0000 -0.7070 -0.7072
vn -0.7071 -0.7072 -0.0010
vn -0.7075 -0.7067 -0.0000
vn -0.7070 -0.7072 0.0010
vn -0.0000 -0.7031 0.7111
vn -0.0000 -1.0000 -0.0000
vn 0.2099 0.9682 -0.1365
vn 0.1175 0.9662 -0.2293
vn -0.0000 0.9653 -0.2610
vn -0.1175 0.9662 -0.2293
vn -0.2099 0.9682 -0.1365
vn -0.2463 0.9692 -0.0000
vn -0.2099 0.9681 0.1365
vn -0.1175 0.9662 0.2293
vn -0.0000 0.9653 0.2610
vn 0.1175 0.9662 0.2293
vn 0.2099 0.9682 0.1365
vn 0.2463 0.9692 -0.0000
vn 0.8683 0.4960 -0.0000
vn 0.7391 0.4889 -0.4634
vn 0.4129 0.4751 -0.7771
vn -0.0000 0.4684 -0.8835
vn -0.4129 0.4751 -0.7771
vn -0.7391 0.4889 -0.4634
vn -0.8683 0.4960 -0.0000
vn -0.7391 0.4889 0.4634
vn -0.4129 0.4751 0.7771
vn -0.0000 0.4684 0.8835
vn 0.4129 0.4751 0.7771
vn 0.7391 0.4889 0.4634
vn 0.5840 0.8118 -0.0000
vn 0.5001 0.8057 -0.3174
vn 0.2826 0.7941 -0.5381
vn -0.0000 0.7884 -0.6152
vn -0.2826 0.7941 -0.5381
vn -0.5001 0.8057 -0.3174
vn -0.5840 0.8118 -0.0000
vn -0.5001 0.8057 0.3174
vn -0.2826 0.7941 0.5381
vn -0.0000 0.7884 0.6152
vn 0.2826 0.7941 0.5381
vn 0.5001 0.8057 0.3174
vn 0.7125 0.6263 -0.3163
vn 0.2784 0.6344 -0.7212
vn -0.0000 1.0000 -0.0000
vn 0.2880 0.6350 0.7168
vn 0.7134 0.6271 0.3126
vn 0.2784 -0.6344 -0.7211
vn 0.7125 -0.6263 -0.3163
vn 0.7134 -0.6271 0.3126
vn 0.2880 -0.6350 0.7168
vn -0.2784 0.6344 -0.7211
vn -0.7125 0.6263 -0.3163
vn -0.7134 0.6271 0.3126
vn -0.2880 0.6351 0.7168
vn -0.7125 -0.6264 -0.3163
vn -0.2784 -0.6344 -0.7212
vn -0.2880 -0.6351 0.7168
vn -0.7134 -0.6271 0.3126
vn 0.8142 0.2742 -0.5117
vn 0.9598 0.2808 -0.0000
vn -0.8142 0.2742 -0.5117
vn -0.9598 0.2808 -0.0000
vn -0.4518 0.2621 -0.8527
vn -0.4518 0.2621 0.8527
vn -0.0000 0.2565 0.9665
vn -0.8142 0.2742 0.5117
vn 0.4518 0.2621 -0.8527
vn -0.0000 0.2565 -0.9665
vn 0.8142 0.2742 0.5117
vn 0.4518 0.2621 0.8527
vt 0.360876 0.925018
vt 0.452299 0.959196
vt 0.447548 0.967140
vt 0.445484 0.976700
vt 0.347814 0.958036
vt 0.408431 0.876014
vt 0.466821 0.949605
vt 0.458938 0.953277
vt 0.497993 0.958194
vt 0.537457 0.875131
vt 0.564376 0.895461
vt 0.505165 0.974361
vt 0.585189 0.922134
vt 0.598516 0.953379
vt 0.107635 0.345105
vt 0.065296 0.253261
vt 0.080075 0.253136
vt 0.083860 0.450793
vt 0.059898 0.367925
vt 0.071296 0.366693
vt 0.105961 0.159803
vt 0.067907 0.138713
vt 0.852872 0.249165
vt 0.957834 0.428607
vt 0.945480 0.440956
vt 0.269421 0.477770
vt 0.089608 0.470459
vt 0.095380 0.460030
vt 0.091329 0.040184
vt 0.270411 0.016597
vt 0.270193 0.028872
vt 0.069317 0.042949
vt 0.079701 0.050281
vt 0.176602 0.408589
vt 0.089912 0.045484
vt 0.269495 0.437696
vt 0.093773 0.454832
vt 0.056653 0.137852
vt 0.053932 0.253415
vt 0.502784 0.965470
vt 0.483723 0.949426
vt 0.506324 0.862256
vt 0.381561 0.897238
vt 0.446557 0.987284
vt 0.343496 0.993939
vt 0.472982 0.857994
vt 0.439610 0.862664
vt 0.475301 0.948315
vt 0.471227 0.254121
vt 0.430223 0.345829
vt 0.456660 0.254038
vt 0.449125 0.052229
vt 0.468828 0.142234
vt 0.431543 0.162497
vt 0.466795 0.367072
vt 0.444343 0.456770
vt 0.361637 0.409859
vt 0.447396 0.472100
vt 0.442851 0.462122
vt 0.478311 0.368191
vt 0.454221 0.452387
vt 0.468698 0.051428
vt 0.459075 0.056775
vt 0.447721 0.047139
vt 0.852971 0.047132
vt 0.958014 0.059637
vt 0.958002 0.244122
vt 0.479648 0.141488
vt 0.482426 0.254191
vt 0.527164 0.059424
vt 0.633330 0.047025
vt 0.633231 0.249058
vt 0.743052 0.249116
vt 0.364249 0.096171
vt 0.633137 0.440902
vt 0.742958 0.441126
vt 0.852779 0.441009
vt 0.526984 0.428399
vt 0.479687 0.982761
vt 0.478721 0.968391
vt 0.491649 0.974739
vt 0.603258 0.986766
vt 0.497431 0.974741
vt 0.504346 0.984627
vt 0.496214 0.981557
vt 0.455398 0.984162
vt 0.453772 0.976801
vt 0.454884 0.969904
vt 0.458143 0.964003
vt 0.462988 0.959502
vt 0.468885 0.956656
vt 0.475307 0.955603
vt 0.481725 0.956371
vt 0.491441 0.952817
vt 0.487631 0.958871
vt 0.492556 0.962934
vt 0.496002 0.968341
vt 0.490816 0.978962
vt 0.461243 0.981063
vt 0.460032 0.976562
vt 0.460660 0.971976
vt 0.462858 0.967871
vt 0.466283 0.964639
vt 0.470552 0.962535
vt 0.475267 0.961699
vt 0.480027 0.962172
vt 0.484433 0.963896
vt 0.488097 0.966735
vt 0.490629 0.970469
vt 0.453883 0.036694
vt 0.463695 0.459389
vt 0.174719 0.092518
vt 0.902326 0.972411
vt 0.828919 0.883262
vt 0.883520 0.866484
vt 0.845401 0.975640
vt 0.751065 0.907307
vt 0.763940 0.980142
vt 0.673985 0.930948
vt 0.682978 0.984131
vt 0.582077 0.573028
vt 0.472066 0.617033
vt 0.472088 0.558535
vt 0.567114 0.629498
vt 0.472148 0.699531
vt 0.546168 0.709141
vt 0.472416 0.780137
vt 0.525857 0.786979
vt 0.376862 0.629276
vt 0.361981 0.572667
vt 0.397969 0.709184
vt 0.418869 0.787295
vt 0.053309 0.867094
vt 0.090913 0.980622
vt 0.032088 0.976366
vt 0.109287 0.885232
vt 0.175250 0.986410
vt 0.189251 0.910845
vt 0.259541 0.991258
vt 0.268862 0.935502
vt 0.170081 0.680380
vt 0.287807 0.665324
vt 0.210603 0.722654
vt 0.328502 0.737472
vt 0.268211 0.782531
vt 0.368728 0.808047
vt 0.325255 0.841101
vt 0.684494 0.615167
vt 0.655614 0.665811
vt 0.615118 0.737315
vt 0.575675 0.807296
vt 0.790445 0.797346
vt 0.772147 0.681853
vt 0.839582 0.767616
vt 0.720767 0.839814
vt 0.731649 0.723165
vt 0.652153 0.881676
vt 0.674576 0.781858
vt 0.618699 0.839539
vt 0.259113 0.614297
vt 0.100218 0.766387
vt 0.149945 0.797456
vt 0.220844 0.841467
vt 0.291242 0.884384
vt 0.074878 0.456313
vt 0.269370 0.488325
vt 0.086636 0.029844
vt 0.945673 0.047275
vt 0.523413 0.243910
vt 0.539757 0.047077
vt 0.743150 0.046907
vt 0.269684 0.064715
vt 0.539565 0.440758
vt 0.487984 0.982203
vt 0.483910 0.983593
vt 0.476447 0.979928
vt 0.475056 0.975855
vt 0.475889 0.971632
vt 0.482795 0.967001
vt 0.487017 0.967833
vt 0.490258 0.970666
s 1
usemtl Cube
f 127/1/92 48/2/46 47/3/45
f 127/1/92 46/4/44 123/5/91
f 96/6/85 50/7/48 49/8/47
f 54/9/52 115/10/89 132/11/94
f 44/12/42 131/13/93 92/14/84
f 4/15/4 7/16/7 3/17/3
f 72/18/70 11/19/11 8/20/8
f 2/21/2 7/16/7 6/22/6
f 29/23/29 74/24/71 75/25/72
f 23/26/23 77/27/74 71/28/69
f 69/29/67 24/30/24 19/31/19
f 6/22/6 75/32/72 68/33/66
f 5/34/5 72/18/70 8/20/8
f 2/21/2 68/33/66 70/35/68
f 18/36/18 71/28/69 73/37/68
f 7/16/7 9/38/9 6/22/6
f 8/20/8 10/39/10 7/16/7
f 55/40/53 132/11/94 131/13/93
f 115/10/89 52/41/50 108/42/88
f 104/43/87 49/8/47 48/2/46
f 123/5/91 45/44/43 91/45/83
f 116/46/90 50/7/48 103/47/86
f 108/42/88 51/48/49 116/46/90
f 21/49/21 16/50/16 15/51/15
f 80/52/68 20/53/20 14/54/14
f 14/54/14 21/49/21 15/51/15
f 22/55/22 83/56/68 17/57/17
f 86/58/81 23/26/23 82/59/78
f 27/60/27 81/61/77 22/55/22
f 84/62/79 20/53/20 79/63/76
f 83/56/68 23/26/23 18/36/18
f 24/30/24 78/64/75 19/31/19
f 25/65/25 85/66/80 24/67/24
f 25/68/25 21/49/21 20/53/20
f 26/69/26 22/55/22 21/49/21
f 86/70/81 27/71/27 30/72/29
f 31/73/29 25/65/25 29/23/29
f 27/71/27 31/73/29 30/72/29
f 19/31/19 80/52/68 13/74/13
f 11/75/11 31/73/29 10/76/10
f 31/73/29 9/77/9 10/76/10
f 77/78/74 30/72/29 11/75/11
f 35/79/33 39/80/37 43/81/41
f 91/82/83 44/12/42 92/14/84
f 56/83/54 45/84/43 57/85/55
f 57/86/55 46/4/44 58/87/56
f 58/87/56 47/3/45 59/88/57
f 60/89/58 47/3/45 48/2/46
f 61/90/59 48/2/46 49/8/47
f 62/91/60 49/8/47 50/7/48
f 62/91/60 51/48/49 63/92/61
f 63/92/61 52/41/50 64/93/62
f 64/93/62 53/94/51 65/95/63
f 66/96/64 53/94/51 54/9/52
f 67/97/65 54/9/52 55/40/53
f 56/83/54 55/40/53 44/12/42
f 43/81/41 57/85/55 32/98/30
f 32/99/30 58/87/56 33/100/31
f 33/100/31 59/88/57 34/101/32
f 35/102/33 59/88/57 60/89/58
f 36/103/34 60/89/58 61/90/59
f 37/104/35 61/90/59 62/91/60
f 37/104/35 63/92/61 38/105/36
f 38/105/36 64/93/62 39/106/37
f 39/106/37 65/95/63 40/107/38
f 41/108/39 65/95/63 66/96/64
f 42/109/40 66/96/64 67/97/65
f 43/81/41 67/97/65 56/83/54
f 68/33/66 69/29/67 70/35/68
f 71/28/69 72/18/70 73/37/68
f 78/64/75 79/63/76 80/52/68
f 81/61/77 82/59/78 83/56/68
f 75/32/72 69/29/67 68/33/66
f 77/27/74 72/18/70 71/28/69
f 85/110/80 79/63/76 78/64/75
f 87/111/82 82/59/78 81/61/77
f 1/112/1 69/29/67 19/31/19
f 2/113/2 95/114/84 3/115/3
f 88/116/83 94/117/84 95/114/84
f 89/118/83 93/119/84 94/117/84
f 90/120/83 92/14/84 93/119/84
f 17/121/17 119/122/90 16/123/16
f 111/124/88 118/125/90 119/122/90
f 110/126/88 117/127/90 118/125/90
f 109/128/88 116/46/90 117/127/90
f 16/123/16 100/129/86 15/130/15
f 119/122/90 101/131/86 100/129/86
f 118/125/90 102/132/86 101/131/86
f 117/127/90 103/47/86 102/132/86
f 1/133/1 88/134/83 2/135/2
f 120/136/91 89/137/83 88/134/83
f 121/138/91 90/139/83 89/137/83
f 122/140/91 91/45/83 90/139/83
f 13/141/13 99/142/85 107/143/87
f 107/143/87 98/144/85 106/145/87
f 106/145/87 97/146/85 105/147/87
f 105/147/87 96/6/85 104/43/87
f 18/148/18 111/124/88 17/121/17
f 112/149/89 110/126/88 111/124/88
f 113/150/89 109/128/88 110/126/88
f 114/151/89 108/42/88 109/128/88
f 128/152/93 5/153/5 4/154/4
f 129/155/93 135/156/94 128/152/93
f 130/157/93 134/158/94 129/155/93
f 131/13/93 133/159/94 130/157/93
f 95/114/84 4/154/4 3/115/3
f 94/117/84 128/152/93 95/114/84
f 93/119/84 129/155/93 94/117/84
f 92/14/84 130/157/93 93/119/84
f 135/156/94 18/148/18 5/153/5
f 134/158/94 112/149/89 135/156/94
f 133/159/94 113/150/89 134/158/94
f 132/11/94 114/151/89 133/159/94
f 14/160/14 100/129/86 99/142/85
f 99/142/85 101/131/86 98/144/85
f 98/144/85 102/132/86 97/146/85
f 97/146/85 103/47/86 96/6/85
f 12/161/12 120/136/91 1/133/1
f 124/162/92 121/138/91 120/136/91
f 125/163/92 122/140/91 121/138/91
f 126/164/92 123/5/91 122/140/91
f 12/161/12 107/143/87 124/162/92
f 124/162/92 106/145/87 125/163/92
f 125/163/92 105/147/87 126/164/92
f 126/164/92 104/43/87 127/1/92
f 127/1/92 104/43/87 48/2/46
f 127/1/92 47/3/45 46/4/44
f 96/6/85 103/47/86 50/7/48
f 54/9/52 53/94/51 115/10/89
f 44/12/42 55/40/53 131/13/93
f 4/15/4 8/20/8 7/16/7
f 72/18/70 76/165/73 11/19/11
f 2/21/2 3/17/3 7/16/7
f 75/25/72 9/77/9 29/23/29
f 29/23/29 24/67/24 74/24/71
f 23/26/23 28/166/28 77/27/74
f 69/29/67 74/167/71 24/30/24
f 6/22/6 9/38/9 75/32/72
f 8/20/8 4/15/4 5/34/5
f 5/34/5 73/37/68 72/18/70
f 70/35/68 1/112/1 2/21/2
f 2/21/2 6/22/6 68/33/66
f 73/37/68 5/34/5 18/36/18
f 18/36/18 23/26/23 71/28/69
f 7/16/7 10/39/10 9/38/9
f 8/20/8 11/19/11 10/39/10
f 55/40/53 54/9/52 132/11/94
f 115/10/89 53/94/51 52/41/50
f 104/43/87 96/6/85 49/8/47
f 123/5/91 46/4/44 45/44/43
f 116/46/90 51/48/49 50/7/48
f 108/42/88 52/41/50 51/48/49
f 21/49/21 22/55/22 16/50/16
f 14/54/14 13/74/13 80/52/68
f 80/52/68 79/63/76 20/53/20
f 14/54/14 20/53/20 21/49/21
f 17/57/17 16/50/16 22/55/22
f 22/55/22 81/61/77 83/56/68
f 86/58/81 28/166/28 23/26/23
f 27/60/27 87/111/82 81/61/77
f 84/62/79 25/68/25 20/53/20
f 18/36/18 17/57/17 83/56/68
f 83/56/68 82/59/78 23/26/23
f 24/30/24 85/110/80 78/64/75
f 24/67/24 29/23/29 25/65/25
f 25/65/25 84/168/79 85/66/80
f 25/68/25 26/69/26 21/49/21
f 26/69/26 27/60/27 22/55/22
f 30/72/29 28/169/28 86/70/81
f 86/70/81 87/170/82 27/71/27
f 31/73/29 26/171/26 25/65/25
f 27/71/27 26/171/26 31/73/29
f 13/74/13 12/172/12 19/31/19
f 19/31/19 78/64/75 80/52/68
f 11/75/11 30/72/29 31/73/29
f 31/73/29 29/23/29 9/77/9
f 11/75/11 76/173/73 77/78/74
f 77/78/74 28/169/28 30/72/29
f 43/81/41 32/98/30 33/174/31
f 33/174/31 34/175/32 35/79/33
f 35/79/33 36/176/34 37/177/35
f 37/177/35 38/178/36 39/80/37
f 39/80/37 40/179/38 41/180/39
f 41/180/39 42/181/40 43/81/41
f 43/81/41 33/174/31 35/79/33
f 35/79/33 37/177/35 39/80/37
f 39/80/37 41/180/39 43/81/41
f 91/82/83 45/84/43 44/12/42
f 56/83/54 44/12/42 45/84/43
f 57/86/55 45/44/43 46/4/44
f 58/87/56 46/4/44 47/3/45
f 60/89/58 59/88/57 47/3/45
f 61/90/59 60/89/58 48/2/46
f 62/91/60 61/90/59 49/8/47
f 62/91/60 50/7/48 51/48/49
f 63/92/61 51/48/49 52/41/50
f 64/93/62 52/41/50 53/94/51
f 66/96/64 65/95/63 53/94/51
f 67/97/65 66/96/64 54/9/52
f 56/83/54 67/97/65 55/40/53
f 43/81/41 56/83/54 57/85/55
f 32/99/30 57/86/55 58/87/56
f 33/100/31 58/87/56 59/88/57
f 35/102/33 34/101/32 59/88/57
f 36/103/34 35/102/33 60/89/58
f 37/104/35 36/103/34 61/90/59
f 37/104/35 62/91/60 63/92/61
f 38/105/36 63/92/61 64/93/62
f 39/106/37 64/93/62 65/95/63
f 41/108/39 40/107/38 65/95/63
f 42/109/40 41/108/39 66/96/64
f 43/81/41 42/109/40 67/97/65
f 75/32/72 74/167/71 69/29/67
f 77/27/74 76/165/73 72/18/70
f 85/110/80 84/62/79 79/63/76
f 87/111/82 86/58/81 82/59/78
f 19/31/19 12/172/12 1/112/1
f 1/112/1 70/35/68 69/29/67
f 2/113/2 88/116/83 95/114/84
f 88/116/83 89/118/83 94/117/84
f 89/118/83 90/120/83 93/119/84
f 90/120/83 91/82/83 92/14/84
f 17/121/17 111/124/88 119/122/90
f 111/124/88 110/126/88 118/125/90
f 110/126/88 109/128/88 117/127/90
f 109/128/88 108/42/88 116/46/90
f 16/123/16 119/122/90 100/129/86
f 119/122/90 118/125/90 101/131/86
f 118/125/90 117/127/90 102/132/86
f 117/127/90 116/46/90 103/47/86
f 1/133/1 120/136/91 88/134/83
f 120/136/91 121/138/91 89/137/83
f 121/138/91 122/140/91 90/139/83
f 122/140/91 123/5/91 91/45/83
f 13/141/13 14/160/14 99/142/85
f 107/143/87 99/142/85 98/144/85
f 106/145/87 98/144/85 97/146/85
f 105/147/87 97/146/85 96/6/85
f 18/148/18 112/149/89 111/124/88
f 112/149/89 113/150/89 110/126/88
f 113/150/89 114/151/89 109/128/88
f 114/151/89 115/10/89 108/42/88
f 128/152/93 135/156/94 5/153/5
f 129/155/93 134/158/94 135/156/94
f 130/157/93 133/159/94 134/158/94
f 131/13/93 132/11/94 133/159/94
f 95/114/84 128/152/93 4/154/4
f 94/117/84 129/155/93 128/152/93
f 93/119/84 130/157/93 129/155/93
f 92/14/84 131/13/93 130/157/93
f 135/156/94 112/149/89 18/148/18
f 134/158/94 113/150/89 112/149/89
f 133/159/94 114/151/89 113/150/89
f 132/11/94 115/10/89 114/151/89
f 14/160/14 15/130/15 100/129/86
f 99/142/85 100/129/86 101/131/86
f 98/144/85 101/131/86 102/132/86
f 97/146/85 102/132/86 103/47/86
f 12/161/12 124/162/92 120/136/91
f 124/162/92 125/163/92 121/138/91
f 125/163/92 126/164/92 122/140/91
f 126/164/92 127/1/92 123/5/91
f 12/161/12 13/141/13 107/143/87
f 124/162/92 107/143/87 106/145/87
f 125/163/92 106/145/87 105/147/87
f 126/164/92 105/147/87 104/43/87
