# Blender 5.0.1
# www.blender.org
mtllib chair.mtl
o Cube.003
v 0.000000 0.687259 -0.069270
v 0.000000 0.769328 -0.098455
v 0.000000 0.687259 -0.106288
v 0.000000 0.754460 -0.132355
v 0.309213 0.687259 -0.069270
v 0.309213 0.769328 -0.098455
v 0.309213 0.687259 -0.106288
v 0.309213 0.754460 -0.132355
v 0.345994 0.793680 -0.149556
v 0.377152 0.765146 -0.137042
v 0.377152 0.780013 -0.103141
v 0.345994 0.808548 -0.115656
v 0.361100 0.861428 -0.179215
v 0.405165 0.861428 -0.179215
v 0.405165 0.867842 -0.142758
v 0.361100 0.867842 -0.142758
v 0.361100 1.117455 -0.291518
v 0.405165 1.117455 -0.291518
v 0.405165 1.123868 -0.255060
v 0.361100 1.123868 -0.255060
v -0.309213 0.687259 -0.069270
v -0.309213 0.769328 -0.098455
v -0.309213 0.687259 -0.106288
v -0.309213 0.754460 -0.132355
v -0.345994 0.793680 -0.149556
v -0.377152 0.765146 -0.137042
v -0.377152 0.780013 -0.103141
v -0.345994 0.808548 -0.115656
v -0.361100 0.861428 -0.179215
v -0.405165 0.861428 -0.179215
v -0.405165 0.867842 -0.142758
v -0.361100 0.867842 -0.142758
v -0.361100 1.117455 -0.291518
v -0.405165 1.117455 -0.291518
v -0.405165 1.123868 -0.255060
v -0.361100 1.123868 -0.255060
v 0.099274 0.152409 -0.167597
v 0.354648 0.107747 0.146781
v 0.084033 0.100374 -0.152356
v 0.348200 0.085733 0.153228
v 0.047239 0.091284 -0.115562
v 0.332634 0.076614 0.168795
v 0.010444 0.100374 -0.078767
v 0.317068 0.085733 0.184361
v -0.004797 0.152409 -0.063527
v 0.310620 0.107747 0.190809
v 0.010444 0.204444 -0.078767
v 0.317068 0.129761 0.184361
v 0.047239 0.225998 -0.115562
v 0.332634 0.138880 0.168795
v 0.084033 0.204444 -0.152356
v 0.348200 0.129761 0.153228
v -0.009347 0.152409 -0.060123
v -0.323725 0.107747 0.195252
v -0.024588 0.100374 -0.075363
v -0.330173 0.085733 0.188804
v -0.061383 0.091284 -0.112158
v -0.345739 0.076614 0.173237
v -0.098177 0.100374 -0.148952
v -0.361306 0.085733 0.157671
v -0.113418 0.152409 -0.164193
v -0.367754 0.107747 0.151223
v -0.098177 0.204444 -0.148952
v -0.361306 0.129761 0.157671
v -0.061383 0.225998 -0.112158
v -0.345739 0.138880 0.173238
v -0.024588 0.204444 -0.075363
v -0.330173 0.129761 0.188804
v 0.000573 0.152409 -0.274756
v 0.314951 0.107747 -0.530130
v 0.015814 0.100374 -0.259515
v 0.321399 0.085733 -0.523683
v 0.052609 0.091284 -0.222721
v 0.336965 0.076614 -0.508116
v 0.089403 0.100374 -0.185926
v 0.352532 0.085733 -0.492550
v 0.104644 0.152409 -0.170686
v 0.358979 0.107747 -0.486102
v 0.089403 0.204444 -0.185926
v 0.352532 0.129761 -0.492550
v 0.052609 0.225998 -0.222721
v 0.336965 0.138880 -0.508116
v 0.015814 0.204444 -0.259515
v 0.321399 0.129761 -0.523683
v -0.108048 0.152409 -0.167281
v -0.363422 0.107747 -0.481659
v -0.092807 0.100374 -0.182522
v -0.356974 0.085733 -0.488107
v -0.056013 0.091284 -0.219317
v -0.341408 0.076614 -0.503673
v -0.019218 0.100374 -0.256111
v -0.325842 0.085733 -0.519240
v -0.003977 0.152409 -0.271352
v -0.319394 0.107747 -0.525687
v -0.019218 0.204444 -0.256111
v -0.325842 0.129761 -0.519240
v -0.056013 0.225998 -0.219317
v -0.341408 0.138880 -0.503673
v -0.092807 0.204444 -0.182522
v -0.356974 0.129761 -0.488107
v -0.340521 0.714619 0.208406
v -0.340521 0.824503 0.208406
v -0.288210 0.694628 -0.510805
v -0.288210 0.787632 -0.510805
v 0.340521 0.714619 0.208406
v 0.340521 0.824503 0.208406
v 0.288210 0.694628 -0.510805
v 0.288210 0.787632 -0.510805
v -0.348900 0.727482 -0.156369
v -0.348900 0.840071 -0.156369
v 0.348900 0.727482 -0.156369
v 0.348900 0.840071 -0.156369
v -0.265505 0.936179 0.235587
v -0.256896 1.479552 0.283350
v -0.265505 0.936179 0.137682
v -0.256896 1.479552 0.188620
v 0.265505 0.936179 0.235587
v 0.256896 1.479552 0.283350
v 0.265505 0.936179 0.137682
v 0.256896 1.479552 0.188620
v -0.274425 1.121729 0.220267
v -0.319276 1.311073 0.250127
v -0.319276 1.311073 0.132394
v -0.274425 1.121729 0.119073
v 0.319276 1.311073 0.132394
v 0.274425 1.121729 0.119073
v 0.319276 1.311073 0.250127
v 0.274425 1.121729 0.220267
v -0.415039 1.107111 0.080515
v -0.415039 1.153777 0.080515
v -0.413290 1.104258 -0.394965
v -0.413290 1.148615 -0.394965
v -0.344345 1.107111 0.080515
v -0.344345 1.153777 0.080515
v -0.346094 1.104258 -0.394965
v -0.346094 1.148615 -0.394965
v -0.434910 1.107478 -0.248821
v -0.434160 1.114532 -0.079719
v -0.434160 1.186443 -0.079719
v -0.434910 1.180378 -0.248821
v -0.325224 1.114532 -0.079719
v -0.324474 1.107478 -0.248821
v -0.324474 1.180378 -0.248821
v -0.325224 1.186443 -0.079719
v 0.415039 1.107111 0.080515
v 0.415039 1.153777 0.080515
v 0.413290 1.104258 -0.394965
v 0.413290 1.148615 -0.394965
v 0.344345 1.107111 0.080515
v 0.344345 1.153777 0.080515
v 0.346094 1.104258 -0.394965
v 0.346094 1.148615 -0.394965
v 0.434910 1.107478 -0.248821
v 0.434160 1.114532 -0.079719
v 0.434160 1.186443 -0.079719
v 0.434910 1.180378 -0.248821
v 0.325224 1.114532 -0.079719
v 0.324474 1.107478 -0.248821
v 0.324474 1.180378 -0.248821
v 0.325224 1.186443 -0.079719
v -0.001600 0.089864 -0.221458
v -0.001600 0.782630 -0.221458
v 0.040742 0.089864 -0.203919
v 0.040742 0.782630 -0.203919
v 0.058281 0.089864 -0.161578
v 0.058281 0.782630 -0.161578
v 0.040742 0.089864 -0.119236
v 0.040742 0.782630 -0.119236
v -0.001600 0.089864 -0.101697
v -0.001600 0.782630 -0.101697
v -0.043942 0.089864 -0.119236
v -0.043942 0.782630 -0.119236
v -0.061480 0.089864 -0.161578
v -0.061480 0.782630 -0.161578
v -0.043942 0.089864 -0.203919
v -0.043942 0.782630 -0.203919
v -0.132695 1.212462 0.230638
v 0.132695 1.212462 0.230638
v -0.132695 1.173114 0.246936
v 0.132695 1.173114 0.246936
v -0.132695 1.156815 0.286285
v 0.132695 1.156815 0.286285
v -0.132695 1.173114 0.325634
v 0.132695 1.173114 0.325634
v -0.132695 1.212462 0.341932
v 0.132695 1.212462 0.341932
v -0.132695 1.251811 0.325634
v 0.132695 1.251811 0.325634
v -0.132695 1.268110 0.286285
v 0.132695 1.268110 0.286285
v -0.132695 1.251811 0.246936
v 0.132695 1.251811 0.246936
v -0.000000 0.684179 0.070868
v -0.000000 0.728243 0.070868
v -0.000000 0.684179 0.033851
v -0.000000 0.728243 0.033851
v 0.309213 0.684179 0.070868
v 0.309213 0.728243 0.070868
v 0.309213 0.684179 0.033851
v 0.309213 0.728243 0.033851
v 0.345994 0.771070 0.033851
v 0.377152 0.739911 0.033851
v 0.377152 0.739911 0.070868
v 0.345994 0.771070 0.070868
v 0.361100 0.829410 0.033851
v 0.405165 0.829410 0.033851
v 0.405165 0.829410 0.070868
v 0.361100 0.829410 0.070868
v 0.361100 1.117387 0.004591
v 0.405165 1.117387 0.004591
v 0.405165 1.117387 0.041609
v 0.361100 1.117387 0.041609
v -0.309213 0.684179 0.070868
v -0.309213 0.728243 0.070868
v -0.309213 0.684179 0.033851
v -0.309213 0.728243 0.033851
v -0.345994 0.771070 0.033851
v -0.377152 0.739911 0.033851
v -0.377152 0.739911 0.070868
v -0.345994 0.771070 0.070868
v -0.361100 0.829410 0.033851
v -0.405165 0.829410 0.033851
v -0.405165 0.829410 0.070868
v -0.361100 0.829410 0.070868
v -0.361100 1.117387 0.004591
v -0.405165 1.117387 0.004591
v -0.405165 1.117387 0.041609
v -0.361100 1.117387 0.041609
v 0.091188 0.685719 0.011478
v 0.091188 0.729783 0.011478
v 0.128205 0.685719 0.011478
v 0.128205 0.729783 0.011478
v 0.091188 0.682639 0.182093
v 0.091188 0.726703 0.182093
v 0.128205 0.682639 0.182093
v 0.128205 0.726703 0.182093
v 0.128205 0.769530 0.218873
v 0.128205 0.738371 0.250032
v 0.091188 0.738371 0.250032
v 0.091188 0.769530 0.218873
v 0.128205 0.827870 0.233980
v 0.128205 0.827870 0.278045
v 0.091188 0.827870 0.278045
v 0.091188 0.827870 0.233980
v 0.131285 1.217486 0.283259
v 0.131285 1.217486 0.327324
v 0.094268 1.217486 0.327324
v 0.094268 1.217486 0.283259
v -0.130570 0.685719 0.011478
v -0.130570 0.729783 0.011478
v -0.093553 0.685719 0.011478
v -0.093553 0.729783 0.011478
v -0.130570 0.682639 0.182093
v -0.130570 0.726703 0.182093
v -0.093553 0.682639 0.182093
v -0.093553 0.726703 0.182093
v -0.093553 0.769530 0.218873
v -0.093553 0.738371 0.250032
v -0.130570 0.738371 0.250032
v -0.130570 0.769530 0.218873
v -0.093553 0.827870 0.233980
v -0.093553 0.827870 0.278045
v -0.130570 0.827870 0.278045
v -0.130570 0.827870 0.233980
v -0.090473 1.217486 0.283259
v -0.090473 1.217486 0.327324
v -0.127490 1.217486 0.327324
v -0.127490 1.217486 0.283259
vn -1.0000 -0.0000 -0.0000
vn -0.0000 -0.3616 -0.9323
vn -0.0049 -0.3752 -0.9269
vn -0.0000 0.3351 0.9422
vn -0.0000 -1.0000 -0.0000
vn -0.0000 0.9158 -0.4016
vn -0.9769 0.2047 -0.0619
vn 0.0087 0.3549 0.9349
vn 0.7986 -0.5891 0.1235
vn -0.7586 0.5967 -0.2617
vn 0.0002 -0.4012 -0.9160
vn 0.0046 0.4119 0.9112
vn 0.9629 -0.2583 0.0781
vn -0.0000 0.9849 -0.1733
vn -0.0000 -0.4017 -0.9158
vn -0.0000 0.4017 0.9158
vn 1.0000 -0.0000 -0.0000
vn 0.0049 -0.3752 -0.9269
vn 0.9769 0.2047 -0.0619
vn -0.0087 0.3549 0.9349
vn -0.7986 -0.5891 0.1235
vn 0.7586 0.5967 -0.2617
vn -0.0002 -0.4012 -0.9160
vn -0.0046 0.4119 0.9112
vn -0.9629 -0.2583 0.0781
vn 0.6900 -0.3821 -0.6148
vn 0.1498 -0.9707 -0.1878
vn -0.1872 -0.9707 0.1504
vn -0.6123 -0.3821 0.6922
vn -0.5478 0.3789 0.7459
vn -0.1263 0.9059 0.4043
vn 0.7071 -0.0000 0.7071
vn 0.4035 0.9061 -0.1273
vn 0.7439 0.3791 -0.5504
vn -0.7071 -0.0000 -0.7071
vn 0.6148 -0.3821 0.6900
vn 0.1878 -0.9707 0.1498
vn -0.1504 -0.9707 -0.1872
vn -0.6922 -0.3821 -0.6123
vn -0.7459 0.3789 -0.5478
vn -0.4043 0.9059 -0.1263
vn -0.7071 -0.0000 0.7071
vn 0.1273 0.9061 0.4035
vn 0.5504 0.3791 0.7439
vn 0.7071 -0.0000 -0.7071
vn -0.6148 -0.3821 -0.6900
vn -0.1878 -0.9707 -0.1498
vn 0.1504 -0.9707 0.1872
vn 0.6922 -0.3821 0.6123
vn 0.7459 0.3789 0.5478
vn 0.4043 0.9059 0.1263
vn -0.1273 0.9061 -0.4035
vn -0.5504 0.3791 -0.7439
vn -0.6900 -0.3821 0.6148
vn -0.1498 -0.9707 0.1878
vn 0.1872 -0.9707 -0.1504
vn 0.6123 -0.3821 -0.6922
vn 0.5478 0.3789 -0.7459
vn 0.1263 0.9059 -0.4043
vn -0.4035 0.9061 0.1273
vn -0.7439 0.3791 0.5504
vn -0.9857 -0.0000 -0.1688
vn -0.0000 -0.0000 -1.0000
vn 0.9997 -0.0000 0.0230
vn -0.0000 -0.0000 1.0000
vn -0.0000 -0.9994 -0.0352
vn -0.0000 0.9991 0.0426
vn -0.0000 0.9892 -0.1464
vn -0.0000 -0.9957 0.0923
vn 0.9857 -0.0000 -0.1688
vn -0.9997 -0.0000 0.0230
vn -0.9378 0.3472 -0.0000
vn -0.0000 0.3166 -0.9486
vn 0.9378 0.3472 -0.0000
vn -0.0000 -0.1935 0.9811
vn -0.0000 1.0000 -0.0000
vn -0.0000 0.0823 0.9966
vn -0.0000 -0.1558 0.9878
vn 0.9988 -0.0480 -0.0000
vn 0.9731 -0.2305 -0.0000
vn -0.0000 -0.0998 -0.9950
vn -0.0000 0.0702 -0.9975
vn -0.9988 -0.0480 -0.0000
vn -0.9731 -0.2305 -0.0000
vn -0.9892 -0.0000 -0.1463
vn 0.9930 -0.0000 0.1185
vn -0.0000 -0.9989 -0.0463
vn -0.0000 0.9798 0.1998
vn -0.0000 0.9772 -0.2124
vn -0.0000 0.9994 -0.0358
vn -0.0000 -0.9998 0.0220
vn -0.0000 -0.9991 0.0417
vn 0.9892 -0.0000 -0.1463
vn 1.0000 -0.0000 0.0044
vn -0.9930 -0.0000 0.1185
vn -1.0000 -0.0000 0.0044
vn 0.3827 -0.0000 -0.9239
vn 0.9239 -0.0000 -0.3827
vn 0.9239 -0.0000 0.3827
vn 0.3827 -0.0000 0.9239
vn -0.3827 -0.0000 0.9239
vn -0.9239 -0.0000 0.3827
vn -0.9239 -0.0000 -0.3827
vn -0.3827 -0.0000 -0.9239
vn -0.0000 -0.3827 -0.9239
vn -0.0000 -0.9239 -0.3827
vn -0.0000 -0.9239 0.3827
vn -0.0000 -0.3827 0.9239
vn -0.0000 0.3827 0.9239
vn -0.0000 0.9239 0.3827
vn -0.0000 0.9239 -0.3827
vn -0.0000 0.3827 -0.9239
vn -0.9681 0.2507 -0.0000
vn 0.6342 -0.7731 -0.0000
vn -0.7586 0.6515 -0.0000
vn 0.9543 -0.2987 -0.0000
vn -0.0000 -0.1011 -0.9949
vn -0.0000 0.1011 0.9949
vn 0.9681 0.2507 -0.0000
vn -0.6342 -0.7731 -0.0000
vn 0.7586 0.6515 -0.0000
vn -0.9543 -0.2987 -0.0000
vn -0.0000 -0.9998 -0.0180
vn -0.0000 0.9998 0.0180
vn -0.0000 0.2507 -0.9681
vn -0.0000 -0.7731 0.6342
vn -0.0000 0.6515 -0.7586
vn -0.0000 0.1255 -0.9921
vn -0.0000 -0.2987 0.9543
vn 1.0000 -0.0079 -0.0000
vn -1.0000 0.0079 -0.0000
vn -0.0000 -0.1255 0.9921
vt 0.375000 0.000000
vt 0.625000 0.000000
vt 0.625000 0.250000
vt 0.375000 0.250000
vt 0.625000 0.500000
vt 0.375000 0.500000
vt 0.375000 0.750000
vt 0.625000 0.750000
vt 0.625000 1.000000
vt 0.375000 1.000000
vt 0.125000 0.500000
vt 0.125000 0.750000
vt 0.875000 0.500000
vt 0.875000 0.750000
vt 1.000000 0.500000
vt 1.000000 1.000000
vt 0.875000 1.000000
vt 0.750000 1.000000
vt 0.750000 0.500000
vt 0.500000 1.000000
vt 0.500000 0.500000
vt 0.250000 1.000000
vt 0.250000 0.500000
vt 0.419706 0.419706
vt 0.250000 0.490000
vt 0.080294 0.419706
vt 0.010000 0.250000
vt 0.080294 0.080294
vt 0.250000 0.010000
vt 0.419706 0.080294
vt 0.490000 0.250000
vt 0.125000 1.000000
vt 0.000000 1.000000
vt 0.000000 0.500000
vt 0.750000 0.490000
vt 0.919706 0.419706
vt 0.990000 0.250000
vt 0.919706 0.080294
vt 0.750000 0.010000
vt 0.580294 0.080294
vt 0.510000 0.250000
vt 0.580294 0.419706
vt 0.375000 0.125000
vt 0.625000 0.125000
vt 0.375000 0.625000
vt 0.625000 0.625000
vt 0.125000 0.625000
vt 0.875000 0.625000
vt 0.541667 0.000000
vt 0.541667 0.250000
vt 0.541667 0.500000
vt 0.541667 0.750000
vt 0.541667 1.000000
vt 0.458333 0.750000
vt 0.458333 1.000000
vt 0.458333 0.500000
vt 0.458333 0.250000
vt 0.458333 0.000000
vt 0.375000 0.166667
vt 0.625000 0.166667
vt 0.375000 0.666667
vt 0.625000 0.666667
vt 0.125000 0.666667
vt 0.875000 0.666667
vt 0.875000 0.583333
vt 0.625000 0.583333
vt 0.375000 0.583333
vt 0.125000 0.583333
vt 0.625000 0.083333
vt 0.375000 0.083333
vt 0.000000 0.000000
vt 0.080294 0.080294
vt 0.250000 0.010000
vt 0.419706 0.080294
s 0
usemtl 
f 1/1/1 2/2/1 4/3/1 3/4/1
f 3/4/2 4/3/2 8/5/2 7/6/2
f 7/6/3 8/5/3 9/5/3 10/6/3
f 5/7/4 6/8/4 2/9/4 1/10/4
f 3/11/5 7/6/5 5/7/5 1/12/5
f 8/5/6 4/13/6 2/14/6 6/8/6
f 9/5/7 12/8/7 16/8/7 13/5/7
f 6/8/8 5/7/8 11/7/8 12/8/8
f 5/7/9 7/6/9 10/6/9 11/7/9
f 8/5/10 6/8/10 12/8/10 9/5/10
f 13/5/1 16/8/1 20/8/1 17/5/1
f 10/6/11 9/5/11 13/5/11 14/6/11
f 12/8/12 11/7/12 15/7/12 16/8/12
f 11/7/13 10/6/13 14/6/13 15/7/13
f 18/6/14 17/5/14 20/8/14 19/7/14
f 14/6/15 13/5/15 17/5/15 18/6/15
f 16/8/16 15/7/16 19/7/16 20/8/16
f 15/7/17 14/6/17 18/6/17 19/7/17
f 3/4/2 23/6/2 24/5/2 4/3/2
f 23/6/18 26/6/18 25/5/18 24/5/18
f 21/7/4 1/10/4 2/9/4 22/8/4
f 3/11/5 1/12/5 21/7/5 23/6/5
f 24/5/6 22/8/6 2/14/6 4/13/6
f 25/5/19 29/5/19 32/8/19 28/8/19
f 22/8/20 28/8/20 27/7/20 21/7/20
f 21/7/21 27/7/21 26/6/21 23/6/21
f 24/5/22 25/5/22 28/8/22 22/8/22
f 29/5/17 33/5/17 36/8/17 32/8/17
f 26/6/23 30/6/23 29/5/23 25/5/23
f 28/8/24 32/8/24 31/7/24 27/7/24
f 27/7/25 31/7/25 30/6/25 26/6/25
f 34/6/14 35/7/14 36/8/14 33/5/14
f 30/6/15 34/6/15 33/5/15 29/5/15
f 32/8/16 36/8/16 35/7/16 31/7/16
f 31/7/1 35/7/1 34/6/1 30/6/1
f 109/43/62 110/44/62 104/3/62 103/4/62
f 103/4/63 104/3/63 108/5/63 107/6/63
f 111/45/64 112/46/64 106/8/64 105/7/64
f 105/7/65 106/8/65 102/9/65 101/10/65
f 109/47/66 111/45/66 105/7/66 101/12/66
f 112/46/67 110/48/67 102/14/67 106/8/67
f 108/5/68 104/13/68 110/48/68 112/46/68
f 103/11/69 107/6/69 111/45/69 109/47/69
f 107/6/70 108/5/70 112/46/70 111/45/70
f 101/1/71 102/2/71 110/44/71 109/43/71
f 122/49/72 114/2/72 116/3/72 123/50/72
f 123/50/73 116/3/73 120/5/73 125/51/73
f 125/51/74 120/5/74 118/8/74 127/52/74
f 127/52/75 118/8/75 114/9/75 122/53/75
f 115/11/5 119/6/5 117/7/5 113/12/5
f 120/5/76 116/13/76 114/14/76 118/8/76
f 117/7/77 128/54/77 121/55/77 113/10/77
f 128/54/78 127/52/78 122/53/78 121/55/78
f 119/6/79 126/56/79 128/54/79 117/7/79
f 126/56/80 125/51/80 127/52/80 128/54/80
f 115/4/81 124/57/81 126/56/81 119/6/81
f 124/57/82 123/50/82 125/51/82 126/56/82
f 113/1/83 121/58/83 124/57/83 115/4/83
f 121/58/84 122/49/84 123/50/84 124/57/84
f 193/1/1 194/2/1 196/3/1 195/4/1
f 195/4/63 196/3/63 200/5/63 199/6/63
f 199/6/63 200/5/63 201/5/63 202/6/63
f 197/7/65 198/8/65 194/9/65 193/10/65
f 195/11/5 199/6/5 197/7/5 193/12/5
f 200/5/76 196/13/76 194/14/76 198/8/76
f 201/5/113 204/8/113 208/8/113 205/5/113
f 198/8/65 197/7/65 203/7/65 204/8/65
f 197/7/114 199/6/114 202/6/114 203/7/114
f 200/5/115 198/8/115 204/8/115 201/5/115
f 205/5/1 208/8/1 212/8/1 209/5/1
f 202/6/63 201/5/63 205/5/63 206/6/63
f 204/8/65 203/7/65 207/7/65 208/8/65
f 203/7/116 202/6/116 206/6/116 207/7/116
f 210/6/76 209/5/76 212/8/76 211/7/76
f 206/6/117 205/5/117 209/5/117 210/6/117
f 208/8/118 207/7/118 211/7/118 212/8/118
f 207/7/17 206/6/17 210/6/17 211/7/17
f 195/4/63 215/6/63 216/5/63 196/3/63
f 215/6/63 218/6/63 217/5/63 216/5/63
f 213/7/65 193/10/65 194/9/65 214/8/65
f 195/11/5 193/12/5 213/7/5 215/6/5
f 216/5/76 214/8/76 194/14/76 196/13/76
f 217/5/119 221/5/119 224/8/119 220/8/119
f 214/8/65 220/8/65 219/7/65 213/7/65
f 213/7/120 219/7/120 218/6/120 215/6/120
f 216/5/121 217/5/121 220/8/121 214/8/121
f 221/5/17 225/5/17 228/8/17 224/8/17
f 218/6/63 222/6/63 221/5/63 217/5/63
f 220/8/65 224/8/65 223/7/65 219/7/65
f 219/7/122 223/7/122 222/6/122 218/6/122
f 226/6/76 227/7/76 228/8/76 225/5/76
f 222/6/117 226/6/117 225/5/117 221/5/117
f 224/8/118 228/8/118 227/7/118 223/7/118
f 223/7/1 227/7/1 226/6/1 222/6/1
f 229/1/63 230/2/63 232/3/63 231/4/63
f 231/4/17 232/3/17 236/5/17 235/6/17
f 235/6/17 236/5/17 237/5/17 238/6/17
f 233/7/1 234/8/1 230/9/1 229/10/1
f 231/11/123 235/6/123 233/7/123 229/12/123
f 236/5/124 232/13/124 230/14/124 234/8/124
f 237/5/125 240/8/125 244/8/125 241/5/125
f 234/8/1 233/7/1 239/7/1 240/8/1
f 233/7/126 235/6/126 238/6/126 239/7/126
f 236/5/127 234/8/127 240/8/127 237/5/127
f 241/5/128 244/8/128 248/8/128 245/5/128
f 238/6/17 237/5/17 241/5/17 242/6/17
f 240/8/1 239/7/1 243/7/1 244/8/1
f 239/7/129 238/6/129 242/6/129 243/7/129
f 246/6/76 245/5/76 248/8/76 247/7/76
f 242/6/130 241/5/130 245/5/130 246/6/130
f 244/8/131 243/7/131 247/7/131 248/8/131
f 243/7/132 242/6/132 246/6/132 247/7/132
f 249/1/63 250/2/63 252/3/63 251/4/63
f 251/4/17 252/3/17 256/5/17 255/6/17
f 255/6/17 256/5/17 257/5/17 258/6/17
f 253/7/1 254/8/1 250/9/1 249/10/1
f 251/11/123 255/6/123 253/7/123 249/12/123
f 256/5/124 252/13/124 250/14/124 254/8/124
f 257/5/125 260/8/125 264/8/125 261/5/125
f 254/8/1 253/7/1 259/7/1 260/8/1
f 253/7/126 255/6/126 258/6/126 259/7/126
f 256/5/127 254/8/127 260/8/127 257/5/127
f 261/5/128 264/8/128 268/8/128 265/5/128
f 258/6/17 257/5/17 261/5/17 262/6/17
f 260/8/1 259/7/1 263/7/1 264/8/1
f 259/7/129 258/6/129 262/6/129 263/7/129
f 266/6/76 265/5/76 268/8/76 267/7/76
f 262/6/130 261/5/130 265/5/130 266/6/130
f 264/8/131 263/7/131 267/7/131 268/8/131
f 263/7/132 262/6/132 266/6/132 267/7/132
usemtl OffChair_Material.021
f 37/15/26 38/16/26 40/17/26 39/13/26
f 39/13/27 40/17/27 42/18/27 41/19/27
f 41/19/28 42/18/28 44/9/28 43/5/28
f 43/5/29 44/9/29 46/20/29 45/21/29
f 45/21/30 46/20/30 48/10/30 47/6/30
f 47/6/31 48/10/31 50/22/31 49/23/31
f 40/24/32 38/25/32 52/26/32 50/27/32 48/28/32 46/29/32 44/30/32 42/31/32
f 49/23/33 50/22/33 52/32/33 51/11/33
f 51/11/34 52/32/34 38/33/34 37/34/34
f 37/35/35 39/36/35 41/37/35 43/38/35 45/39/35 47/40/35 49/41/35 51/42/35
f 137/59/85 140/60/85 132/3/85 131/4/85
f 131/4/63 132/3/63 136/5/63 135/6/63
f 141/61/86 144/62/86 134/8/86 133/7/86
f 133/7/65 134/8/65 130/9/65 129/10/65
f 138/63/87 141/61/87 133/7/87 129/12/87
f 144/62/88 139/64/88 130/14/88 134/8/88
f 136/5/89 132/13/89 140/65/89 143/66/89
f 143/66/90 140/65/90 139/64/90 144/62/90
f 131/11/91 135/6/91 142/67/91 137/68/91
f 137/68/92 142/67/92 141/61/92 138/63/92
f 135/6/93 136/5/93 143/66/93 142/67/93
f 142/67/94 143/66/94 144/62/94 141/61/94
f 129/1/95 130/2/95 139/69/95 138/70/95
f 138/70/96 139/69/96 140/60/96 137/59/96
f 137/71/63 140/71/63 143/71/63 142/71/63
f 153/59/93 147/4/93 148/3/93 156/60/93
f 147/4/63 151/6/63 152/5/63 148/3/63
f 157/61/95 149/7/95 150/8/95 160/62/95
f 149/7/65 145/10/65 146/9/65 150/8/65
f 154/63/87 145/12/87 149/7/87 157/61/87
f 160/62/88 150/8/88 146/14/88 155/64/88
f 152/5/89 159/66/89 156/65/89 148/13/89
f 159/66/90 160/62/90 155/64/90 156/65/90
f 147/11/91 153/68/91 158/67/91 151/6/91
f 153/68/92 154/63/92 157/61/92 158/67/92
f 151/6/85 158/67/85 159/66/85 152/5/85
f 158/67/96 157/61/96 160/62/96 159/66/96
f 145/1/86 154/70/86 155/69/86 146/2/86
f 154/70/94 153/59/94 156/60/94 155/69/94
f 153/71/63 158/71/63 159/71/63 156/71/63
f 161/15/97 162/16/97 164/17/97 163/13/97
f 163/13/98 164/17/98 166/18/98 165/19/98
f 165/19/99 166/18/99 168/9/99 167/5/99
f 167/5/100 168/9/100 170/20/100 169/21/100
f 169/21/101 170/20/101 172/10/101 171/6/101
f 171/6/102 172/10/102 174/22/102 173/23/102
f 164/24/76 162/25/76 176/26/76 174/27/76 172/72/76 170/73/76 168/74/76 166/31/76
f 173/23/103 174/22/103 176/32/103 175/11/103
f 175/11/104 176/32/104 162/33/104 161/34/104
f 161/35/5 163/36/5 165/37/5 167/38/5 169/39/5 171/40/5 173/41/5 175/42/5
f 177/15/105 178/16/105 180/17/105 179/13/105
f 179/13/106 180/17/106 182/18/106 181/19/106
f 181/19/107 182/18/107 184/9/107 183/5/107
f 183/5/108 184/9/108 186/20/108 185/21/108
f 185/21/109 186/20/109 188/10/109 187/6/109
f 187/6/110 188/10/110 190/22/110 189/23/110
f 180/24/17 178/25/17 192/26/17 190/27/17 188/28/17 186/29/17 184/30/17 182/31/17
f 189/23/111 190/22/111 192/32/111 191/11/111
f 191/11/112 192/32/112 178/33/112 177/34/112
f 177/35/1 179/36/1 181/37/1 183/38/1 185/39/1 187/40/1 189/41/1 191/42/1
usemtl OffChair_Material.028
f 53/15/36 54/16/36 56/17/36 55/13/36
f 55/13/37 56/17/37 58/18/37 57/19/37
f 57/19/38 58/18/38 60/9/38 59/5/38
f 59/5/39 60/9/39 62/20/39 61/21/39
f 61/21/40 62/20/40 64/10/40 63/6/40
f 63/6/41 64/10/41 66/22/41 65/23/41
f 56/24/42 54/25/42 68/26/42 66/27/42 64/28/42 62/29/42 60/30/42 58/31/42
f 65/23/43 66/22/43 68/32/43 67/11/43
f 67/11/44 68/32/44 54/33/44 53/34/44
f 53/35/45 55/36/45 57/37/45 59/38/45 61/39/45 63/40/45 65/41/45 67/42/45
usemtl OffChair_Material.040
f 69/15/46 70/16/46 72/17/46 71/13/46
f 71/13/47 72/17/47 74/18/47 73/19/47
f 73/19/48 74/18/48 76/9/48 75/5/48
f 75/5/49 76/9/49 78/20/49 77/21/49
f 77/21/50 78/20/50 80/10/50 79/6/50
f 79/6/51 80/10/51 82/22/51 81/23/51
f 72/24/45 70/25/45 84/26/45 82/27/45 80/28/45 78/29/45 76/30/45 74/31/45
f 81/23/52 82/22/52 84/32/52 83/11/52
f 83/11/53 84/32/53 70/33/53 69/34/53
f 69/35/42 71/36/42 73/37/42 75/38/42 77/39/42 79/40/42 81/41/42 83/42/42
usemtl OffChair_Material.052
f 85/15/54 86/16/54 88/17/54 87/13/54
f 87/13/55 88/17/55 90/18/55 89/19/55
f 89/19/56 90/18/56 92/9/56 91/5/56
f 91/5/57 92/9/57 94/20/57 93/21/57
f 93/21/58 94/20/58 96/10/58 95/6/58
f 95/6/59 96/10/59 98/22/59 97/23/59
f 88/24/35 86/25/35 100/26/35 98/27/35 96/28/35 94/29/35 92/30/35 90/31/35
f 97/23/60 98/22/60 100/32/60 99/11/60
f 99/11/61 100/32/61 86/33/61 85/34/61
f 85/35/32 87/36/32 89/37/32 91/38/32 93/39/32 95/40/32 97/41/32 99/42/32
