# Blender 4.4.3
# www.blender.org
mtllib front_down.mtl
o FrontDown
v 1.999999 -1.000000 -1.000001
v 1.999999 0.250000 -1.000001
v 2.000001 -2.250000 0.999999
v 2.000001 -1.000000 0.999999
v -2.000001 -1.000000 -0.999999
v -2.000001 0.250000 -0.999999
v -1.999999 -2.250000 1.000001
v -1.999999 -1.000000 1.000001
v 1.500001 -1.250000 1.000000
v 1.500001 -1.000000 1.000000
v -1.499999 -1.000000 1.000000
v -1.499999 -1.250000 1.000000
v 1.499999 0.250000 -1.000000
v 1.499999 0.000000 -1.000000
v -1.500001 0.000000 -1.000000
v -1.500001 0.250000 -1.000000
v 2.000001 -2.250000 1.999999
v 2.000001 -1.000000 1.999999
v -1.999999 -1.000000 2.000001
v -1.499999 -1.000000 2.000000
v -1.999999 -2.250000 2.000001
v 1.500001 -1.000000 2.000000
v 1.500001 -1.250000 2.000000
v -1.499999 -1.250000 2.000000
v 1.999999 -1.000000 -2.000001
v 1.999999 0.250000 -2.000001
v -2.000001 -1.000000 -1.999999
v -2.000001 0.250000 -1.999999
v 1.499999 0.250000 -2.000000
v 1.499999 0.000000 -2.000000
v -1.500001 0.000000 -2.000000
v -1.500001 0.250000 -2.000000
vn 1.0000 -0.0000 -0.0000
vn -1.0000 -0.0000 -0.0000
vn -0.0000 1.0000 -0.0000
vn -0.0000 -0.8480 -0.5300
vn -0.0000 0.8480 0.5300
vn -0.0000 -0.0000 1.0000
vn -0.0000 -1.0000 -0.0000
vn -0.0000 -0.0000 -1.0000
vt 1.000000 0.500000
vt 0.500000 0.656250
vt 0.500000 0.500000
vt 0.500000 0.625000
vt 0.439877 0.125679
vt 0.502717 0.000000
vt 0.502717 0.125679
vt 1.000000 0.000000
vt 0.500000 0.500000
vt 0.500000 0.000000
vt 0.000000 0.125679
vt 0.062840 0.377038
vt 0.000000 0.377038
vt 0.502717 0.377038
vt 0.439877 0.377038
vt 1.000000 0.625000
vt 1.000000 0.656250
vt 0.062840 0.125679
vt 0.000000 0.500000
vt 0.500000 0.500000
vt 0.062500 0.625000
vt 0.439877 0.502717
vt 0.062840 0.502717
vt 0.000000 0.502717
vt 0.500000 0.500000
vt 0.000000 0.500000
vt 0.437500 0.625000
vt 0.062840 0.000000
vt 1.000000 0.500000
vt 0.439877 0.000000
vt 0.062500 0.656250
vt 0.000000 0.656250
vt 0.500000 0.656250
vt 0.437500 0.656250
vt 0.437500 0.625000
vt 0.502717 0.502717
vt 0.437500 0.656250
vt 0.500000 0.656250
vt 0.000000 0.656250
vt 0.062500 0.656250
vt 0.062500 0.625000
vt 0.000000 0.000000
s 1
usemtl FrontDown
f 1/1/1 4/2/1 3/3/1
f 9/4/2 22/2/2 10/2/2
f 8/2/2 5/1/2 7/3/2
f 16/5/3 28/6/3 6/7/3
f 7/8/4 1/9/4 3/10/4
f 2/11/5 10/12/5 4/13/5
f 16/5/5 8/14/5 11/15/5
f 14/16/2 10/2/2 13/17/2
f 11/2/1 15/16/1 16/17/1
f 12/15/5 14/18/5 15/5/5
f 21/19/6 17/20/6 24/21/6
f 3/10/7 21/8/7 7/8/7
f 8/14/3 20/22/3 11/15/3
f 12/15/3 23/23/3 9/12/3
f 10/12/3 18/24/3 4/13/3
f 7/3/2 19/2/2 8/2/2
f 4/2/1 17/3/1 3/3/1
f 11/2/1 24/4/1 12/4/1
f 25/25/8 27/26/8 30/27/8
f 2/11/3 29/28/3 13/18/3
f 1/1/1 26/17/1 2/17/1
f 13/17/2 30/16/2 14/16/2
f 15/16/1 32/17/1 16/17/1
f 5/29/7 25/9/7 1/9/7
f 6/17/2 27/1/2 5/1/2
f 14/18/3 31/30/3 15/5/3
f 1/1/1 2/17/1 4/2/1
f 9/4/2 23/4/2 22/2/2
f 8/2/2 6/17/2 5/1/2
f 16/5/3 32/30/3 28/6/3
f 7/8/4 5/29/4 1/9/4
f 2/11/5 13/18/5 10/12/5
f 16/5/5 6/7/5 8/14/5
f 14/16/2 9/4/2 10/2/2
f 11/2/1 12/4/1 15/16/1
f 12/15/5 9/12/5 14/18/5
f 20/31/6 19/32/6 21/19/6
f 17/20/6 18/33/6 22/34/6
f 17/20/6 22/34/6 23/35/6
f 24/21/6 20/31/6 21/19/6
f 17/20/6 23/35/6 24/21/6
f 3/10/7 17/10/7 21/8/7
f 8/14/3 19/36/3 20/22/3
f 12/15/3 24/22/3 23/23/3
f 10/12/3 22/23/3 18/24/3
f 7/3/2 21/3/2 19/2/2
f 4/2/1 18/2/1 17/3/1
f 11/2/1 20/2/1 24/4/1
f 29/37/8 26/38/8 25/25/8
f 27/26/8 28/39/8 32/40/8
f 27/26/8 32/40/8 31/41/8
f 30/27/8 29/37/8 25/25/8
f 27/26/8 31/41/8 30/27/8
f 2/11/3 26/42/3 29/28/3
f 1/1/1 25/1/1 26/17/1
f 13/17/2 29/17/2 30/16/2
f 15/16/1 31/16/1 32/17/1
f 5/29/7 27/29/7 25/9/7
f 6/17/2 28/17/2 27/1/2
f 14/18/3 30/28/3 31/30/3
