# Blender 4.4.3
# www.blender.org
mtllib front.mtl
o Front
v 1.999999 -1.000000 -2.000001
v 1.999999 0.250000 -2.000001
v 2.000001 -1.000000 1.999999
v 2.000001 0.250000 1.999999
v -2.000001 -1.000000 -1.999999
v -2.000001 0.250000 -1.999999
v -1.999999 -1.000000 2.000001
v -1.999999 0.250000 2.000001
v 1.500001 0.000000 2.000000
v 1.500001 0.250000 2.000000
v -1.499999 0.250000 2.000000
v -1.499999 0.000000 2.000000
v 1.499999 0.250000 -2.000000
v 1.499999 0.000000 -2.000000
v -1.500001 0.000000 -2.000000
v -1.500001 0.250000 -2.000000
vn 1.0000 -0.0000 -0.0000
vn -0.0000 -0.0000 1.0000
vn -1.0000 -0.0000 -0.0000
vn -0.0000 -0.0000 -1.0000
vn -0.0000 -1.0000 -0.0000
vn -0.0000 1.0000 -0.0000
vt 1.000000 0.656250
vt 0.500000 0.500000
vt 1.000000 0.500000
vt 0.000000 0.500000
vt 0.500000 0.500000
vt 0.062500 0.625000
vt 0.500000 0.656250
vt 0.500000 0.500000
vt 0.000000 0.500000
vt 0.437500 0.625000
vt 1.000000 0.000000
vt 0.500000 0.500000
vt 0.500000 0.000000
vt 0.000000 0.000000
vt 0.062500 0.500000
vt 0.437500 0.000000
vt 0.437500 0.500000
vt 1.000000 0.625000
vt 0.500000 0.625000
vt 0.062500 0.000000
vt 0.062500 0.656250
vt 0.000000 0.656250
vt 0.500000 0.656250
vt 0.437500 0.656250
vt 0.437500 0.625000
vt 0.437500 0.656250
vt 0.500000 0.656250
vt 0.000000 0.656250
vt 0.062500 0.656250
vt 0.062500 0.625000
vt 1.000000 0.500000
s 1
usemtl Front
f 2/1/1 3/2/1 1/3/1
f 7/4/2 3/5/2 12/6/2
f 8/7/3 5/3/3 7/2/3
f 1/8/4 5/9/4 14/10/4
f 7/11/5 1/12/5 3/13/5
f 2/14/6 10/15/6 4/4/6
f 16/16/6 8/12/6 11/17/6
f 14/18/3 10/7/3 13/1/3
f 12/19/1 16/1/1 11/7/1
f 12/17/6 14/20/6 15/16/6
f 2/1/1 4/7/1 3/2/1
f 11/21/2 8/22/2 7/4/2
f 3/5/2 4/23/2 10/24/2
f 3/5/2 10/24/2 9/25/2
f 12/6/2 11/21/2 7/4/2
f 3/5/2 9/25/2 12/6/2
f 8/7/3 6/1/3 5/3/3
f 13/26/4 2/27/4 1/8/4
f 5/9/4 6/28/4 16/29/4
f 5/9/4 16/29/4 15/30/4
f 14/10/4 13/26/4 1/8/4
f 5/9/4 15/30/4 14/10/4
f 7/11/5 5/31/5 1/12/5
f 2/14/6 13/20/6 10/15/6
f 16/16/6 6/13/6 8/12/6
f 14/18/3 9/19/3 10/7/3
f 12/19/1 15/18/1 16/1/1
f 12/17/6 9/15/6 14/20/6
