# Blender 4.4.3
# www.blender.org
mtllib front.mtl
o Front
v -6.000000 4.900000 -5.999999
v -5.999999 4.900001 6.000001
v -5.899999 4.900001 6.000001
v -5.900001 4.900000 -5.999999
v 5.900001 4.900001 5.999999
v 6.000001 4.900001 5.999998
v 6.000000 4.900000 -6.000002
v 5.900000 4.900000 -6.000001
v 5.900000 5.000000 -6.000001
v 5.900001 5.000000 5.999999
v -5.900001 5.000000 -5.999999
v -5.899999 5.000000 6.000001
v -5.999999 5.000000 6.000001
v -6.000000 5.000000 -5.999999
v 6.000001 5.000000 5.999998
v 6.000000 5.000000 -6.000002
v 5.900000 -0.000000 -6.000001
v 5.900001 0.000000 5.999999
v -5.900001 -0.000000 -5.999998
v -5.899999 0.000000 6.000002
v -1.500001 -0.000000 -5.999999
v -1.500001 -0.000000 -5.999999
v 1.499999 -0.000000 -6.000001
v 1.499999 -0.000000 -6.000001
v -1.499999 0.000000 6.000001
v -1.499999 0.000000 6.000001
v 1.500001 0.000000 5.999999
v 1.500001 0.000000 5.999999
v -5.999999 0.000000 6.000002
v -5.999999 -1.000000 6.000002
v -6.000000 -0.000000 -5.999998
v -6.000000 -1.000000 -5.999998
v 6.000001 0.000000 5.999998
v 6.000001 -1.000000 5.999998
v 6.000000 -0.000000 -6.000002
v 6.000000 -1.000000 -6.000002
vn -0.0000 -0.0000 1.0000
vn -0.0000 -0.0000 -1.0000
vn 1.0000 -0.0000 -0.0000
vn -1.0000 -0.0000 -0.0000
vn -0.0000 -1.0000 -0.0000
vn -0.0000 1.0000 -0.0000
vn 1.0000 -0.0000 -0.0001
vn -0.0000 0.4472 -0.8944
vn -1.0000 -0.0000 0.0001
vn -0.0000 0.4472 0.8944
vt 0.000000 0.000000
vt 1.000000 0.000000
vt 1.000000 1.000000
vt 0.000000 0.476839
vt 0.000000 0.386893
vt 0.220278 0.386893
vt 0.000000 0.693446
vt 0.000000 0.783393
vt 0.220278 0.783393
vt 0.000000 1.000000
vt 0.220278 1.000000
vt 0.000000 0.476839
vt 0.220278 0.476839
vt 0.220278 0.557608
vt 0.000000 0.557608
vt 0.220278 0.612678
vt 0.000000 0.693446
vt 0.000000 0.612678
vt 0.220278 0.476839
vt 0.220278 0.693446
vt 0.220278 0.783393
vt 0.220278 0.693446
s 1
usemtl Front
f 10/1/1 12/2/1 3/3/1
f 8/1/2 4/2/2 11/3/2
f 19/4/3 4/5/3 3/6/3
f 20/1/1 3/2/1 2/3/1
f 31/1/2 1/2/2 4/3/2
f 29/1/4 2/2/4 1/3/4
f 17/1/2 8/2/2 7/3/2
f 35/1/3 7/2/3 6/3/3
f 18/7/4 5/8/4 8/9/4
f 33/1/1 6/2/1 5/3/1
f 2/1/4 13/2/4 14/3/4
f 1/1/2 14/2/2 11/3/2
f 6/1/1 15/2/1 10/3/1
f 5/8/5 3/10/5 4/11/5
f 3/1/1 12/2/1 13/3/1
f 7/1/3 16/2/3 15/3/3
f 16/1/6 9/2/6 10/3/6
f 14/1/6 13/2/6 12/3/6
f 8/1/2 9/2/2 16/3/2
f 19/12/6 20/13/6 26/14/6
f 22/15/6 25/14/6 28/16/6
s 0
f 26/1/6 25/2/1 22/3/1
f 24/1/6 23/2/2 28/3/2
s 1
f 10/1/6 9/2/6 11/3/6
f 17/17/6 24/18/6 27/16/6
f 34/1/5 30/2/5 32/3/5
s 0
f 21/1/6 22/2/4 23/3/7
s 1
f 23/1/8 36/2/2 19/3/2
f 23/1/8 17/2/2 36/3/2
s 0
f 23/1/6 24/2/4 17/3/7
s 1
f 36/1/2 31/2/2 19/3/2
f 36/1/2 32/2/2 31/3/2
f 17/1/2 35/2/2 36/3/2
f 29/1/4 31/2/4 32/3/4
s 0
f 27/1/6 28/2/4 25/3/9
s 1
f 25/1/10 30/2/1 18/3/1
f 25/1/10 20/2/1 30/3/1
s 0
f 25/1/6 26/2/4 20/3/6
s 1
f 30/1/1 33/2/1 18/3/1
f 30/1/1 34/2/1 33/3/1
f 20/1/1 29/2/1 30/3/1
f 35/1/3 33/2/3 34/3/3
f 10/1/1 3/2/1 5/3/1
f 8/1/2 11/2/2 9/3/2
f 19/4/3 3/6/3 20/19/3
f 20/1/1 2/2/1 29/3/1
f 31/1/2 4/2/2 19/3/2
f 29/1/4 1/2/4 31/3/4
f 17/1/2 7/2/2 35/3/2
f 35/1/3 6/2/3 33/3/3
f 18/7/4 8/9/4 17/20/4
f 33/1/1 5/2/1 18/3/1
f 2/1/4 14/2/4 1/3/4
f 1/1/2 11/2/2 4/3/2
f 6/1/1 10/2/1 5/3/1
f 5/8/5 4/11/5 8/21/5
f 3/1/1 13/2/1 2/3/1
f 7/1/3 15/2/3 6/3/3
f 16/1/6 10/2/6 15/3/6
f 14/1/6 12/2/6 11/3/6
f 8/1/2 16/2/2 7/3/2
f 19/12/6 26/14/6 21/15/6
f 22/15/6 28/16/6 23/18/6
s 0
f 26/1/2 22/2/6 21/3/2
f 24/1/1 28/2/6 27/3/1
s 1
f 10/1/6 11/2/6 12/3/6
f 17/17/6 27/16/6 18/22/6
f 34/1/5 32/2/5 36/3/5
f 19/1/2 21/2/6 23/3/8
f 29/1/4 32/2/4 30/3/4
f 18/1/1 27/2/6 25/3/10
f 35/1/3 34/2/3 36/3/3
