# Blender 4.4.3
# www.blender.org
mtllib right_left_front.mtl
o RightLeftFront
v 1.999999 -1.000000 -2.000001
v 1.500000 0.000000 -1.500000
v 1.999999 0.250000 -2.000001
v 2.000001 -1.000000 1.999999
v 1.500000 0.000000 1.500000
v 2.000001 0.250000 1.999999
v -2.000001 -1.000000 -1.999999
v -1.500000 0.000000 -1.500000
v -2.000001 0.250000 -1.999999
v -1.999999 -1.000000 2.000001
v -1.500000 0.000000 1.500000
v -1.999999 0.250000 2.000001
v 2.000000 0.000000 -1.500001
v 2.000000 0.250000 -1.500001
v 2.000000 0.250000 1.499999
v 2.000000 0.000000 1.499999
v 1.500001 0.000000 2.000000
v 1.500001 0.250000 2.000000
v -1.499999 0.250000 2.000000
v -1.499999 0.000000 2.000000
v 1.500000 0.250000 -1.500000
v -1.500000 0.250000 1.500000
v 1.500000 0.250000 1.500000
v -1.500000 0.250000 -1.500000
v -2.000000 0.250000 -1.499999
v -2.000000 0.000000 1.500001
v -2.000000 0.250000 1.500001
v -2.000000 0.000000 -1.499999
v 1.499999 0.250000 -2.000000
v -1.500001 0.000000 -2.000000
v -1.500001 0.250000 -2.000000
v 1.499999 0.000000 -2.000000
vn 1.0000 -0.0000 -0.0000
vn -0.0000 -0.0000 1.0000
vn -1.0000 -0.0000 -0.0000
vn -0.0000 -0.0000 -1.0000
vn -0.0000 -1.0000 -0.0000
vn -0.0000 1.0000 -0.0000
vt 0.562500 0.625000
vt 0.500000 0.500000
vt 1.000000 0.500000
vt 0.000000 0.500000
vt 0.500000 0.500000
vt 0.062500 0.625000
vt 0.937500 0.625000
vt 0.437500 0.625000
vt 1.000000 0.000000
vt 0.500000 0.000000
vt 0.000000 0.000000
vt 0.062500 0.062500
vt 0.000000 0.062500
vt 0.500000 0.062500
vt 0.437500 0.000000
vt 0.500000 0.000000
vt 0.437500 0.437500
vt 0.500000 0.437500
vt 0.000000 0.437500
vt 0.062500 0.500000
vt 0.500000 0.625000
vt 0.437500 0.656250
vt 0.500000 0.656250
vt 0.500000 0.625000
vt 0.062500 0.437500
vt 0.437500 0.500000
vt 0.562500 0.656250
vt 0.500000 0.656250
vt 0.437500 0.062500
vt 0.000000 0.656250
vt 0.062500 0.656250
vt 0.000000 0.656250
vt 0.000000 0.625000
vt 1.000000 0.625000
vt 0.937500 0.656250
vt 1.000000 0.656250
vt 0.062500 0.000000
vt 0.437500 0.656250
vt 0.500000 0.656250
vt 0.062500 0.656250
vt 1.000000 0.500000
s 0
usemtl Material
f 16/1/1 4/2/1 1/3/1
f 10/4/2 4/5/2 20/6/2
f 7/3/3 10/2/3 28/7/3
f 1/5/4 7/4/4 32/8/4
f 10/9/5 1/5/5 4/10/5
f 3/11/6 21/12/6 14/13/6
f 25/14/6 31/15/6 9/16/6
f 12/5/6 22/17/6 27/18/6
f 15/19/6 18/20/6 6/4/6
f 13/21/2 21/22/2 2/8/2
f 11/1/1 19/23/1 20/24/1
f 2/12/6 11/17/6 5/25/6
f 17/20/6 11/17/6 20/26/6
f 5/1/3 18/23/3 23/27/3
f 5/25/6 13/13/6 2/12/6
f 5/8/4 15/28/4 16/21/4
f 26/18/6 8/29/6 28/14/6
f 11/6/4 27/30/4 22/31/4
f 8/6/2 25/32/2 28/33/2
f 30/34/1 24/35/1 8/7/1
f 32/34/3 21/35/3 29/36/3
f 30/15/6 2/12/6 32/37/6
f 16/1/1 15/27/1 6/23/1
f 1/3/1 3/36/1 14/35/1
f 1/3/1 14/35/1 13/7/1
f 16/1/1 6/23/1 4/2/1
f 1/3/1 13/7/1 16/1/1
f 20/6/2 19/31/2 12/30/2
f 4/5/2 6/28/2 18/38/2
f 4/5/2 18/38/2 17/8/2
f 20/6/2 12/30/2 10/4/2
f 4/5/2 17/8/2 20/6/2
f 28/7/3 25/35/3 9/36/3
f 10/2/3 12/23/3 27/27/3
f 10/2/3 27/27/3 26/1/3
f 28/7/3 9/36/3 7/3/3
f 10/2/3 26/1/3 28/7/3
f 29/22/4 3/39/4 1/5/4
f 7/4/4 9/32/4 31/40/4
f 7/4/4 31/40/4 30/6/4
f 32/8/4 29/22/4 1/5/4
f 7/4/4 30/6/4 32/8/4
f 10/9/5 7/41/5 1/5/5
f 3/11/6 29/37/6 21/12/6
f 25/14/6 24/29/6 31/15/6
f 12/5/6 19/26/6 22/17/6
f 15/19/6 23/25/6 18/20/6
f 13/21/2 14/39/2 21/22/2
f 11/1/1 22/27/1 19/23/1
f 2/12/6 8/29/6 11/17/6
f 17/20/6 5/25/6 11/17/6
f 5/1/3 17/24/3 18/23/3
f 5/25/6 16/19/6 13/13/6
f 5/8/4 23/38/4 15/28/4
f 26/18/6 11/17/6 8/29/6
f 11/6/4 26/33/4 27/30/4
f 8/6/2 24/40/2 25/32/2
f 30/34/1 31/36/1 24/35/1
f 32/34/3 2/7/3 21/35/3
f 30/15/6 8/29/6 2/12/6
