# Blender 4.4.3
# www.blender.org
mtllib right.mtl
o Right
v -6.000000 -1.000000 -1.500000
v 6.000000 -0.000000 -1.500000
v 6.000000 -1.000000 -1.500000
v -1.500000 -1.000000 -1.500000
v -1.500000 -0.000000 -1.500000
v 1.500000 -0.000000 -1.500000
v 1.500000 -1.000000 -1.500000
v -6.000000 -0.000000 -1.500000
v 1.500000 -1.000000 1.500000
v 1.500000 -0.000000 1.500000
v -6.000000 -0.000000 1.500000
v -6.000000 -1.000000 1.500000
v 6.000000 -0.000000 1.500000
v 6.000000 -1.000000 1.500000
v 6.000000 -1.000000 6.000000
v 6.000000 0.000000 6.000000
v 6.000000 -1.000000 -6.000001
v 6.000000 0.000000 -6.000000
v -6.000000 -1.000000 6.000000
v -6.000000 0.000000 6.000000
v -6.000000 -1.000000 -6.000001
v -6.000000 0.000000 -6.000000
v -1.500000 -0.000000 1.500000
v -1.500000 -1.000000 1.500000
v -1.500000 0.000000 6.000000
v -1.500000 -1.000000 -6.000001
v -1.500000 -1.000000 6.000000
v -1.500000 0.000000 -6.000000
v 1.500000 0.000000 6.000000
v 1.500000 -1.000000 6.000000
v 1.500000 0.000000 -6.000000
v 1.500000 -1.000000 -6.000001
v 6.000000 -1.000000 -5.900001
v 1.500000 0.000000 -5.900000
v -1.500000 -1.000000 -5.900001
v 1.500000 -1.000000 -5.900001
v -6.000000 0.000000 -5.900000
v -1.500000 0.000000 -5.900000
v 6.000000 0.000000 -5.900000
v -6.000000 -1.000000 -5.900001
v 6.000000 0.000000 5.900000
v -6.000000 -1.000000 5.900000
v -1.500000 -1.000000 5.900000
v -1.500000 0.000000 5.900000
v 6.000000 -1.000000 5.900000
v -6.000000 0.000000 5.900000
v 1.500000 0.000000 5.900000
v 1.500000 -1.000000 5.900000
v 5.900000 -1.000000 1.500000
v 5.900000 -0.000000 -1.500000
v 5.900000 -1.000000 -1.500000
v 5.900000 -0.000000 1.500000
v 5.900000 -1.000000 -6.000001
v 5.900000 0.000000 6.000000
v 5.900000 0.000000 -6.000000
v 5.900000 -1.000000 6.000000
v 5.900000 -1.000000 -5.900001
v -1.500000 4.900000 6.000000
v 5.900000 -1.000000 5.900000
v 5.900000 4.900000 -5.999999
v -5.900000 -0.000000 -1.500000
v -5.900000 0.000000 6.000000
v -5.900000 -1.000000 -1.500000
v -5.900000 -1.000000 -6.000001
v -5.900000 -0.000000 1.500000
v -5.900000 -1.000000 1.500000
v -5.900000 0.000000 -6.000000
v -5.900000 -1.000000 6.000000
v 1.500000 4.900000 -5.999999
v -5.900000 -1.000000 -5.900001
v -5.900000 -1.000000 5.900000
v 1.500000 4.900000 5.900001
v -5.900000 5.000000 -1.499999
v -6.000000 5.000000 -1.499999
v 6.000000 5.000000 5.900001
v 6.000000 5.000000 1.500001
v -6.000000 5.000000 -5.899999
v -5.900000 5.000000 6.000000
v -1.500000 5.000000 6.000000
v -1.500000 5.000000 5.900001
v -5.900000 5.000000 1.500001
v -6.000000 5.000000 1.500001
v 6.000000 5.000000 -1.499999
v -1.500000 5.000000 -5.899999
v -1.500000 5.000000 -1.499999
v 6.000000 5.000000 -5.899999
v 6.000000 5.000000 -5.999999
v -5.900000 5.000000 -5.999999
v -6.000000 5.000000 -5.999999
v -6.000000 5.000000 5.900001
v -6.000000 5.000000 6.000000
v 5.900000 5.000000 6.000000
v 6.000000 5.000000 6.000000
v 1.500000 5.000000 5.900001
v 1.500000 5.000000 6.000000
v 5.900000 5.000000 -5.999999
v 1.500000 5.000000 -5.999999
v 1.500000 5.000000 -5.899999
v -1.500000 5.000000 -5.999999
v -5.900000 5.000000 -5.899999
v 5.900000 5.000000 -5.899999
v 5.900000 5.000000 5.900001
v -5.900000 5.000000 5.900001
v 5.900000 5.000000 -1.499999
v 5.900000 5.000000 1.500001
v -5.900000 4.900000 1.500001
v 5.900000 4.900000 6.000000
v 1.500000 4.900000 6.000000
v -6.000000 4.900000 5.900001
v -6.000000 4.900000 1.500001
v 6.000000 4.900000 -5.999999
v 6.000000 4.900000 1.500001
v 6.000000 4.900000 5.900001
v 6.000000 4.900000 -5.899999
v 6.000000 4.900000 -1.499999
v -5.900000 4.900000 6.000000
v -6.000000 4.900000 6.000000
v -1.500000 4.900000 5.900001
v 5.900000 4.900000 -1.499999
v 5.900000 4.900000 1.500001
v 1.500000 4.900000 -5.899999
v 6.000000 4.900000 6.000000
v -5.900000 4.900001 -5.999999
v -1.500000 4.900001 -5.999999
v -1.500000 4.900001 -5.899999
v -6.000000 4.900001 -5.899999
v -6.000000 4.900001 -5.999999
v -6.000000 4.900001 -1.499999
v -5.900000 4.900001 -1.499999
v -1.500000 4.900001 -1.499999
vn 1.0000 -0.0000 -0.0000
vn -0.0000 1.0000 -0.0000
vn -0.0000 -1.0000 -0.0000
vn -0.0000 -0.0000 -1.0000
vn -1.0000 -0.0000 -0.0000
vn -0.0000 -0.0000 1.0000
vn -0.7071 -0.0000 0.7071
vn 0.7071 -0.0000 0.7071
vn 0.7071 -0.0000 -0.7071
vn 0.7070 -0.0141 0.7070
vt 0.571828 0.736590
vt 0.571193 0.764892
vt 0.593101 0.790073
vt 0.593592 0.764827
vt 0.531384 0.679500
vt 0.527877 0.679566
vt 0.574701 0.736546
vt 0.077835 0.557967
vt 0.000000 0.557967
vt 0.000000 0.611036
vt 0.077835 0.611036
vt 0.784833 0.794528
vt 0.717696 0.795319
vt 0.717857 0.795943
vt 0.784779 0.795158
vt 0.620669 0.797084
vt 0.620327 0.818813
vt 0.717796 0.817797
vt 0.906231 0.760540
vt 0.906808 0.786251
vt 0.924579 0.760040
vt 0.923860 0.731152
vt 0.784914 0.817098
vt 0.920864 0.731199
vt 0.790099 0.733219
vt 0.787612 0.762167
vt 0.903577 0.760576
vt 0.795283 0.672852
vt 0.795553 0.707973
vt 0.686536 0.709821
vt 0.686782 0.674920
vt 0.596149 0.764792
vt 0.795142 0.674499
vt 0.687199 0.676545
vt 0.702100 0.734578
vt 0.526894 0.713974
vt 0.709459 0.763238
vt 0.568011 0.906741
vt 0.521943 0.887316
vt 0.521839 0.890938
vt 0.567944 0.909692
vt 0.616389 0.927141
vt 0.615898 0.926934
vt 0.615862 0.929184
vt 0.616353 0.929383
vt 0.956024 0.671449
vt 0.000827 0.558886
vt 0.000827 0.611677
vt 0.167002 0.611677
vt 0.167002 0.558886
vt 0.957012 0.669770
vt 0.958061 0.705218
vt 0.190723 0.561015
vt 0.169130 0.587956
vt 0.196071 0.609548
vt 0.217663 0.582607
vt 0.886561 0.793330
vt 0.886998 0.815470
vt 0.959717 0.671379
vt 0.960774 0.706656
vt 0.961792 0.705155
vt 0.960724 0.669699
vt 0.530173 0.677904
vt 0.529195 0.712489
vt 0.525654 0.712549
vt 0.526648 0.677971
vt 0.617998 0.796493
vt 0.617647 0.818287
vt 0.618125 0.818836
vt 0.618474 0.797110
vt 0.883913 0.793994
vt 0.884340 0.816061
vt 0.886613 0.816038
vt 0.886179 0.793967
vt 0.620201 0.796467
vt 0.796910 0.885016
vt 0.963353 0.883959
vt 0.963463 0.887697
vt 0.796938 0.888717
vt 0.884287 0.793357
vt 0.047745 0.611793
vt 0.047745 0.558193
vt 0.045958 0.558193
vt 0.045958 0.611793
vt 0.967174 0.883935
vt 0.967287 0.887673
vt 0.785585 0.926486
vt 0.717492 0.926750
vt 0.717486 0.929006
vt 0.785599 0.928752
vt 0.126875 0.524231
vt 0.157613 0.524231
vt 0.157613 0.479148
vt 0.126875 0.479148
vt 0.336001 0.337376
vt 0.336001 0.435775
vt 0.339281 0.435775
vt 0.483600 0.435775
vt 0.483600 0.580093
vt 0.483600 0.583373
vt 0.581998 0.583373
vt 0.581998 0.580093
vt 0.726317 0.435775
vt 0.726317 0.337376
vt 0.581998 0.193058
vt 0.483600 0.193058
vt 0.339281 0.337376
vt 0.886470 0.926096
vt 0.886514 0.928375
vt 0.078960 0.478192
vt 0.078960 0.523496
vt 0.124264 0.478192
vt 0.520648 0.886770
vt 0.524271 0.886747
vt 0.524168 0.890388
vt 0.520543 0.890410
vt 0.685297 0.885724
vt 0.685271 0.889401
vt 0.048072 0.478192
vt 0.048072 0.523496
vt 0.590648 0.916287
vt 0.590597 0.918907
vt 0.966103 0.884511
vt 0.966214 0.888229
vt 0.909694 0.914841
vt 0.889175 0.925873
vt 0.889220 0.928160
vt 0.909754 0.917511
vt 0.928186 0.904898
vt 0.928261 0.907913
vt 0.047745 0.611793
vt 0.047745 0.558193
vt 0.002768 0.478192
vt 0.618622 0.927132
vt 0.618587 0.929375
vt 0.081792 0.524231
vt 0.726317 0.580093
vt 0.729597 0.580093
vt 0.729597 0.435775
vt 0.729597 0.337376
vt 0.339281 0.193058
vt 0.483600 0.189778
vt 0.339281 0.189778
vt 0.339281 0.580093
vt 0.726317 0.193058
vt 0.729597 0.193058
vt 0.729597 0.189778
vt 0.726317 0.189778
vt 0.581998 0.189778
vt 0.339281 0.583373
vt 0.726317 0.583373
vt 0.729597 0.583373
vt 0.336001 0.193058
vt 0.336001 0.583373
vt 0.336001 0.580093
vt 0.336001 0.189778
vt 0.570948 0.906726
vt 0.570883 0.909677
vt 0.888777 0.926087
vt 0.888822 0.928367
vt 0.190467 0.365757
vt 0.096576 0.365757
vt 0.096576 0.470317
vt 0.190467 0.470317
vt 0.212806 0.693892
vt 0.133910 0.693892
vt 0.133910 0.781754
vt 0.212806 0.781754
vt 0.795409 0.709445
vt 0.796755 0.885580
vt 0.097877 0.356503
vt 0.000000 0.356503
vt 0.000000 0.465502
vt 0.097877 0.465502
vt 0.595667 0.790042
vt 0.593257 0.916275
vt 0.098481 0.359305
vt 0.002509 0.359305
vt 0.002509 0.466183
vt 0.098481 0.466183
vt 0.032560 0.365757
vt 0.032560 0.470317
vt 0.080117 0.693892
vt 0.080117 0.781754
vt 0.001221 0.693892
vt 0.001221 0.781754
vt 0.047688 0.521748
vt 0.047688 0.478794
vt 0.004734 0.478794
vt 0.003758 0.478794
vt 0.047688 0.522724
vt 0.079851 0.692731
vt 0.081651 0.692731
vt 0.081651 0.780932
vt 0.079851 0.780932
vt 0.686957 0.711274
vt 0.685734 0.886281
vt 0.098481 0.359305
vt 0.002509 0.466183
vt 0.098481 0.466183
vt 0.097877 0.356503
vt 0.000000 0.356503
vt 0.000000 0.465502
vt 0.135078 0.999775
vt 0.081991 0.999775
vt 0.004131 0.921915
vt 0.004131 0.868828
vt 0.081991 0.790968
vt 0.081991 0.789199
vt 0.135078 0.789199
vt 0.135078 0.790968
vt 0.135078 0.868828
vt 0.212938 0.868828
vt 0.214708 0.868828
vt 0.214708 0.921915
vt 0.212938 0.921915
vt 0.000651 0.692731
vt 0.000651 0.782732
vt 0.079851 0.782732
s 0
usemtl Front.009
f 1/1/1 8/2/1 11/3/1 12/4/1
f 70/5/2 40/6/2 1/1/2 63/7/2
f 61/8/3 5/9/3 23/10/3 65/11/3
f 48/12/2 43/13/2 27/14/2 30/15/2
f 68/16/4 62/17/4 25/18/4 27/14/4
f 14/19/5 13/20/5 2/21/5 3/22/5
f 27/14/4 25/18/4 29/23/4 30/15/4
f 51/24/2 7/25/2 9/26/2 49/27/2
f 32/28/6 31/29/6 28/30/6 26/31/6
f 63/7/2 1/1/2 12/4/2 66/32/2
f 36/33/2 35/34/2 4/35/2 7/25/2
f 40/6/1 37/36/1 8/2/1 1/1/1
f 7/25/2 4/35/2 24/37/2 9/26/2
f 128/38/1 126/39/1 77/40/1 74/41/1
f 117/42/1 109/43/1 90/44/1 91/45/1
f 57/46/2 36/33/2 7/25/2 51/24/2
f 38/47/3 34/48/3 6/49/3 5/50/3
f 53/51/6 55/52/6 31/29/6 32/28/6
f 5/53/3 6/54/3 10/55/3 23/56/3
f 45/57/5 41/58/5 13/20/5 14/19/5
f 33/59/5 39/60/5 18/61/5 17/62/5
f 64/63/6 67/64/6 22/65/6 21/66/6
f 42/67/1 46/68/1 20/69/1 19/70/1
f 56/71/4 54/72/4 16/73/4 15/74/4
f 71/75/2 42/67/2 19/70/2 68/16/2
f 69/76/6 60/77/6 96/78/6 97/79/6
f 59/80/2 48/12/2 30/15/2 56/71/2
f 3/22/5 2/21/5 39/60/5 33/59/5
f 28/81/3 31/82/3 34/83/3 38/84/3
f 53/51/2 32/28/2 36/33/2 57/46/2
f 60/77/6 111/85/6 87/86/6 96/78/6
f 21/66/1 22/65/1 37/36/1 40/6/1
f 32/28/2 26/31/2 35/34/2 36/33/2
f 108/87/4 58/88/4 79/89/4 95/90/4
f 64/63/2 21/66/2 40/6/2 70/5/2
f 49/27/2 9/26/2 48/12/2 59/80/2
f 23/91/3 10/92/3 47/93/3 44/94/3
f 82/95/3 74/96/3 73/97/3 85/98/3 84/99/3 99/100/3 97/101/3 98/102/3 104/103/3 105/104/3 94/105/3 80/106/3 81/107/3
f 66/32/2 12/4/2 42/67/2 71/75/2
f 12/4/1 11/3/1 46/68/1 42/67/1
f 15/74/5 16/73/5 41/58/5 45/57/5
f 107/108/4 108/87/4 95/90/4 92/109/4
f 9/26/2 24/37/2 43/13/2 48/12/2
f 10/110/3 52/111/3 47/112/3
f 14/19/2 49/27/2 59/80/2 45/57/2
f 127/113/6 123/114/6 88/115/6 89/116/6
f 17/62/2 53/51/2 57/46/2 33/59/2
f 45/57/2 59/80/2 56/71/2 15/74/2
f 123/114/6 124/117/6 99/118/6 88/115/6
f 30/15/4 29/23/4 54/72/4 56/71/4
f 17/62/6 18/61/6 55/52/6 53/51/6
f 33/59/2 57/46/2 51/24/2 3/22/2
f 3/22/2 51/24/2 49/27/2 14/19/2
f 6/119/3 50/120/3 52/111/3 10/110/3
f 109/43/1 110/121/1 82/122/1 90/44/1
f 111/85/5 114/123/5 86/124/5 87/86/5
f 24/37/2 66/32/2 71/75/2 43/13/2
f 26/31/2 64/63/2 70/5/2 35/34/2
f 112/125/5 113/126/5 75/127/5 76/128/5
f 43/13/2 71/75/2 68/16/2 27/14/2
f 26/31/6 28/30/6 67/64/6 64/63/6
f 114/123/5 115/129/5 83/130/5 86/124/5
f 99/118/6 124/117/6 69/76/6 97/79/6
f 4/35/2 63/7/2 66/32/2 24/37/2
f 19/70/4 20/69/4 62/17/4 68/16/4
f 8/84/3 61/131/3 65/132/3 11/83/3
f 35/34/2 70/5/2 63/7/2 4/35/2
f 126/39/1 127/113/1 89/116/1 77/40/1
f 50/120/3 6/119/3 34/133/3
f 116/134/4 117/42/4 91/45/4 78/135/4
f 44/94/3 65/136/3 23/91/3
f 101/137/3 86/138/3 83/139/3 104/103/3
f 104/103/3 83/139/3 76/140/3 105/104/3
f 103/141/3 80/106/3 79/142/3 78/143/3
f 100/144/3 84/99/3 73/97/3
f 102/145/3 75/146/3 93/147/3 92/148/3
f 80/106/3 94/105/3 95/149/3 79/142/3
f 88/150/3 99/100/3 84/99/3 100/144/3
f 96/151/3 87/152/3 86/138/3 101/137/3
f 105/104/3 76/140/3 75/146/3 102/145/3
f 81/107/3 80/106/3 103/141/3
f 97/101/3 96/151/3 101/137/3 98/102/3
f 94/105/3 102/145/3 92/148/3 95/149/3
f 98/102/3 101/137/3 104/103/3
f 82/95/3 81/107/3 103/141/3 90/153/3
f 89/154/3 88/150/3 100/144/3 77/155/3
f 77/155/3 100/144/3 73/97/3 74/96/3
f 90/153/3 103/141/3 78/143/3 91/156/3
f 73/97/3 84/99/3 85/98/3
f 94/105/3 105/104/3 102/145/3
f 74/41/1 82/122/1 110/121/1 128/38/1
f 58/88/4 116/134/4 78/135/4 79/89/4
f 129/157/4 128/38/4 74/41/4 73/158/4
f 115/129/5 112/125/5 76/128/5 83/130/5
f 122/159/4 107/108/4 92/109/4 93/160/4
f 113/126/5 122/159/5 93/160/5 75/127/5
f 41/58/5 16/73/5 122/159/5 113/126/5
f 65/161/7 44/162/7 118/163/7 106/164/7
f 16/73/4 54/72/4 107/108/4 122/159/4
f 2/21/5 13/20/5 112/125/5 115/129/5
f 47/165/8 52/166/8 120/167/8 72/168/8
f 25/18/4 62/17/4 116/134/4 58/88/4
f 34/169/1 31/29/1 69/76/1 121/170/1
f 62/17/4 20/69/4 117/42/4 116/134/4
f 39/60/5 2/21/5 115/129/5 114/123/5
f 13/20/5 41/58/5 113/126/5 112/125/5
f 18/61/5 39/60/5 114/123/5 111/85/5
f 46/171/1 11/172/1 110/173/1 109/174/1
f 54/72/4 29/23/4 108/87/4 107/108/4
f 11/3/6 65/175/6 106/176/6 110/121/6
f 29/23/4 25/18/4 58/88/4 108/87/4
f 55/52/6 18/61/6 111/85/6 60/77/6
f 31/177/6 55/178/6 60/179/6 69/180/6
f 44/162/6 47/181/6 72/182/6 118/163/6
f 20/69/1 46/68/1 109/43/1 117/42/1
f 52/166/1 50/183/1 119/184/1 120/167/1
f 50/183/9 34/185/9 121/186/9 119/184/9
f 61/187/2 5/188/2 38/189/2 28/190/2 8/191/2
f 8/2/2 28/30/2 67/64/2 37/36/2
f 61/192/4 8/193/4 128/194/4 129/195/4
f 37/36/1 22/65/1 127/113/1 126/39/1
f 28/30/5 38/196/5 125/197/5 124/117/5
f 67/198/6 28/178/6 124/199/6 123/200/6
f 22/65/6 67/64/6 123/114/6 127/113/6
f 8/201/1 37/202/1 126/203/1 128/174/1
f 118/204/2 72/205/2 120/206/2 119/207/2 121/208/2 69/209/2 124/210/2 125/211/2 130/212/2 129/213/2 128/214/2 110/215/2 106/216/2
f 8/193/10 28/217/10 84/218/10 73/219/10
f 130/212/2 125/211/2 129/213/2
