# Blender 4.4.3
# www.blender.org
mtllib right_left_front.mtl
o RightLeftFront
v -6.000001 -1.000000 -1.499997
v 5.999999 -0.000000 -1.500003
v 5.999999 -1.000000 -1.500004
v -1.500001 -1.000000 -1.500000
v -1.500001 -0.000000 -1.499999
v 1.499999 -0.000000 -1.500000
v 1.499999 -1.000000 -1.500001
v -6.000001 -0.000000 -1.499996
v 1.500001 -1.000000 1.499999
v 1.500001 -0.000000 1.499999
v -5.999999 -0.000000 1.500003
v -5.999999 -1.000000 1.500003
v 6.000001 -0.000000 1.499997
v 6.000001 -1.000000 1.499996
v 6.000003 -1.000000 5.999997
v 6.000003 0.000000 5.999997
v 5.999997 -1.000000 -6.000004
v 5.999997 0.000000 -6.000003
v -5.999997 -1.000000 6.000003
v -5.999997 0.000000 6.000003
v -6.000003 -1.000000 -5.999998
v -6.000003 0.000000 -5.999996
v -1.499999 -0.000000 1.500001
v -1.499999 -1.000000 1.500000
v -1.499997 0.000000 6.000001
v -1.500003 -1.000000 -6.000000
v -1.499997 -1.000000 6.000001
v -1.500003 0.000000 -5.999999
v 1.500003 0.000000 5.999999
v 1.500003 -1.000000 5.999999
v 1.499997 0.000000 -6.000000
v 1.499997 -1.000000 -6.000002
v 5.999997 -1.000000 -5.900004
v 1.499997 0.000000 -5.900001
v -1.500003 -1.000000 -5.900000
v 1.499997 -1.000000 -5.900002
v -6.000003 0.000000 -5.899996
v -1.500003 0.000000 -5.899999
v 5.999997 0.000000 -5.900003
v -6.000003 -1.000000 -5.899998
v 6.000003 0.000000 5.899997
v -5.999997 -1.000000 5.900003
v -1.499997 -1.000000 5.900001
v -1.499997 0.000000 5.900001
v 6.000003 -1.000000 5.899997
v -5.999997 0.000000 5.900003
v 1.500003 0.000000 5.899999
v 1.500003 -1.000000 5.899999
v 5.900001 -1.000000 1.499997
v 5.899999 -0.000000 -1.500003
v 5.899999 -1.000000 -1.500003
v 5.900001 -0.000000 1.499997
v 5.899997 -1.000000 -6.000004
v 5.900003 0.000000 5.999997
v 5.899997 0.000000 -6.000003
v 5.900003 -1.000000 5.999997
v 5.899997 -1.000000 -5.900004
v -1.499997 4.900000 5.900002
v 5.900003 -1.000000 5.899997
v -5.899999 4.900000 1.500004
v -5.900001 -0.000000 -1.499996
v -5.899997 0.000000 6.000003
v -5.900001 -1.000000 -1.499997
v -5.900003 -1.000000 -5.999998
v -5.899999 -0.000000 1.500003
v -5.899999 -1.000000 1.500003
v -5.900003 0.000000 -5.999996
v -5.899997 -1.000000 6.000003
v -1.500003 4.900000 -5.899998
v -5.900003 -1.000000 -5.899998
v -5.899997 -1.000000 5.900003
v 1.499997 4.900000 -5.900000
v -6.000001 5.000000 -1.499996
v -5.999999 5.000000 1.500004
v -5.900001 5.000000 -1.499996
v 6.000003 5.000000 5.899998
v 6.000001 5.000000 1.499997
v -6.000003 5.000000 -5.899996
v -5.899997 5.000000 6.000004
v -1.499997 5.000000 6.000001
v -1.499997 5.000000 5.900002
v -5.899999 5.000000 1.500004
v 5.999999 5.000000 -1.500002
v 5.999997 5.000000 -5.900002
v 5.999997 5.000000 -6.000002
v -5.900003 5.000000 -5.999996
v -6.000003 5.000000 -5.999996
v -5.999997 5.000000 5.900004
v -5.999997 5.000000 6.000004
v 5.900003 5.000000 5.999998
v 6.000003 5.000000 5.999998
v 1.500003 5.000000 5.900000
v 1.500003 5.000000 6.000000
v 1.499997 5.000000 -6.000000
v -1.500003 5.000000 -5.999998
v 5.899997 5.000000 -6.000002
v 1.499997 5.000000 -5.900000
v -1.500003 5.000000 -5.899998
v -5.900003 5.000000 -5.899996
v 5.899997 5.000000 -5.900002
v 5.900003 5.000000 5.899998
v -5.899997 5.000000 5.900004
v 5.899999 5.000000 -1.500002
v 5.900001 5.000000 1.499997
v 1.500003 4.900000 5.900000
v 5.900001 4.900000 1.499997
v -5.900001 4.900000 -1.499996
v 5.899999 4.900000 -1.500002
vn 1.0000 -0.0000 -0.0000
vn -0.0000 1.0000 -0.0000
vn -0.0000 -0.0000 1.0000
vn -0.0000 -1.0000 -0.0000
vn -0.0000 -0.0000 -1.0000
vn -1.0000 -0.0000 -0.0000
vn 0.7071 -0.0000 -0.7071
vn -0.7071 -0.0000 -0.7071
vn 0.7071 -0.0000 0.7071
vn -0.7071 -0.0000 0.7071
vn -0.7071 0.7071 -0.0000
vn -0.0000 0.7071 0.7071
vn 0.7071 0.7071 -0.0000
vn -0.0000 0.7071 -0.7071
vt 0.083349 0.365483
vt 0.083349 0.383284
vt 0.136751 0.383284
vt 0.136751 0.365483
vt 0.336967 0.789953
vt 0.334234 0.789953
vt 0.334234 0.669687
vt 0.336967 0.669687
vt 0.095517 0.368960
vt 0.007357 0.368960
vt 0.007357 0.469142
vt 0.095517 0.469142
vt 0.002367 0.560085
vt 0.077072 0.560085
vt 0.077072 0.611020
vt 0.002367 0.611020
vt 0.539232 0.467423
vt 0.457233 0.467423
vt 0.457233 0.464690
vt 0.539232 0.464690
vt 0.095508 0.364159
vt 0.095508 0.381562
vt 0.002122 0.381562
vt 0.002122 0.364159
vt 0.005353 0.368960
vt 0.005353 0.469142
vt 0.136751 0.365483
vt 0.136751 0.383284
vt 0.083349 0.383284
vt 0.083349 0.365483
vt 0.159179 0.364159
vt 0.159179 0.381562
vt 0.659497 0.669688
vt 0.539232 0.669688
vt 0.539232 0.587688
vt 0.659497 0.587689
vt 0.004619 0.348319
vt 0.004619 0.368951
vt 0.096429 0.368951
vt 0.096429 0.348319
vt 0.334234 0.587688
vt 0.336967 0.587688
vt 0.539232 0.789953
vt 0.457233 0.789953
vt 0.457233 0.669687
vt 0.005026 0.365483
vt 0.005026 0.383284
vt 0.457233 0.587688
vt 0.625000 0.624436
vt 0.625000 0.663554
vt 0.137482 0.611582
vt 0.139257 0.611582
vt 0.139257 0.558342
vt 0.137482 0.558342
vt 0.659497 0.789953
vt 0.096317 0.559682
vt 0.096317 0.611662
vt 0.020080 0.611662
vt 0.020080 0.559682
vt 0.007357 0.348924
vt 0.095517 0.348924
vt 0.128007 0.560085
vt 0.128007 0.611020
vt 0.215074 0.365483
vt 0.215074 0.383284
vt 0.005026 0.365483
vt 0.005026 0.383284
vt 0.003246 0.383284
vt 0.003246 0.365483
vt 0.096064 0.348399
vt 0.096064 0.368768
vt 0.098101 0.368768
vt 0.098101 0.348399
vt 0.215074 0.365483
vt 0.215074 0.383284
vt 0.216854 0.383284
vt 0.216854 0.365483
vt 0.000000 0.381562
vt 0.000000 0.364159
vt 0.336967 0.467423
vt 0.334234 0.467423
vt 0.334234 0.464690
vt 0.336967 0.464690
vt 0.095508 0.468581
vt 0.002122 0.468581
vt 0.096064 0.470615
vt 0.098101 0.470615
vt 0.659497 0.467423
vt 0.659497 0.464690
vt 0.782090 0.500000
vt 0.719906 0.500000
vt 0.659497 0.792686
vt 0.539232 0.792686
vt 0.006439 0.368768
vt 0.006439 0.470615
vt 0.003246 0.365483
vt 0.003246 0.383284
vt 0.457232 0.792686
vt 0.186845 0.362834
vt 0.097835 0.362834
vt 0.097835 0.472717
vt 0.186845 0.472717
vt 0.336967 0.792686
vt 0.334234 0.792686
vt 0.006733 0.610536
vt 0.006733 0.558582
vt 0.082932 0.558582
vt 0.082932 0.610536
vt 0.005026 0.472287
vt 0.003246 0.472287
vt 0.216854 0.365483
vt 0.216854 0.383284
vt 0.097835 0.362834
vt 0.186845 0.362834
vt 0.136237 0.478143
vt 0.211100 0.478143
vt 0.136237 0.553007
vt 0.662230 0.587689
vt 0.662230 0.467423
vt 0.662230 0.792686
vt 0.662230 0.789953
vt 0.662230 0.464690
vt 0.083349 0.472287
vt 0.005353 0.348924
vt 0.662230 0.669688
vt 0.202712 0.560085
vt 0.202712 0.611020
vt 0.003246 0.472287
vt 0.005026 0.472287
vt 0.097630 0.381562
vt 0.097630 0.468581
vt 0.216854 0.472287
vt 0.215074 0.472287
vt 0.006439 0.348399
vt 0.336967 0.587688
vt 0.336967 0.669687
vt 0.457233 0.789953
vt 0.000000 0.468581
vt 0.097630 0.364159
vt 0.137774 0.789592
vt 0.084762 0.789592
vt 0.007011 0.867343
vt 0.007011 0.920355
vt 0.084762 0.998106
vt 0.137774 0.998106
vt 0.215525 0.920355
vt 0.215525 0.867343
vt 0.160057 0.478143
vt 0.085194 0.553006
vt 0.085194 0.478143
vt 0.010331 0.478143
vt 0.085194 0.553007
vt 0.085194 0.478143
vt 0.659497 0.789953
vt 0.662230 0.789953
vt 0.336967 0.467423
vt 0.336967 0.789953
vt 0.659497 0.467423
vt 0.662230 0.467423
vt 0.539232 0.792686
vt 0.336967 0.792686
vt 0.659497 0.792686
vt 0.662230 0.792686
vt 0.334234 0.587688
vt 0.334234 0.467423
vt 0.334234 0.792686
vt 0.334234 0.789953
vt 0.334234 0.669687
vt 0.719906 0.750000
vt 0.782090 0.750000
vt 0.719906 0.750000
vt 0.875000 0.663554
vt 0.875000 0.624436
vt 0.875000 0.624436
vt 0.003059 0.357967
vt 0.097410 0.357967
vt 0.097410 0.463040
vt 0.003059 0.463040
vt 0.097410 0.465184
vt 0.003059 0.465184
vt 0.003059 0.360111
vt 0.097410 0.360111
vt 0.002163 0.359563
vt 0.097327 0.359563
vt 0.097327 0.465541
vt 0.002163 0.465541
vt 0.097327 0.359563
vt 0.097327 0.465541
vt 0.092567 0.611642
vt 0.090782 0.611642
vt 0.090782 0.558095
vt 0.092567 0.558095
vt 0.000915 0.465184
vt 0.000915 0.357967
vt 0.099489 0.467704
vt 0.099489 0.359563
vt 0.136751 0.472287
vt 0.083349 0.470507
vt 0.136751 0.470507
vt 0.096429 0.472115
vt 0.096429 0.470052
vt 0.004619 0.470052
vt 0.004619 0.472115
vt 0.097410 0.357967
vt 0.625000 0.342910
vt 0.090782 0.611642
vt 0.090782 0.558095
vt 0.000000 0.359563
vt 0.000000 0.467704
vt 0.097327 0.467704
vt 0.002163 0.467704
vt 0.159179 0.466840
vt 0.159179 0.468581
vt 0.095508 0.466840
s 0
usemtl Front
f 1/1/1 8/2/1 11/3/1 12/4/1
f 70/5/2 40/6/2 1/7/2 63/8/2
f 31/9/3 55/10/3 96/11/3 94/12/3
f 61/13/4 5/14/4 23/15/4 65/16/4
f 48/17/2 43/18/2 27/19/2 30/20/2
f 68/21/5 62/22/5 25/23/5 27/24/5
f 55/10/3 18/25/3 85/26/3 96/11/3
f 14/27/6 13/28/6 2/29/6 3/30/6
f 27/31/5 25/32/5 29/22/5 30/21/5
f 51/33/2 7/34/2 9/35/2 49/36/2
f 32/37/3 31/38/3 28/39/3 26/40/3
f 63/8/2 1/7/2 12/41/2 66/42/2
f 36/43/2 35/44/2 4/45/2 7/34/2
f 40/46/1 37/47/1 8/2/1 1/1/1
f 7/34/2 4/45/2 24/48/2 9/35/2
f 107/49/6 60/50/6 82/50/6 75/49/6
f 25/51/4 44/52/4 47/53/4 29/54/4
f 57/55/2 36/43/2 7/34/2 51/33/2
f 38/56/4 34/57/4 6/58/4 5/59/4
f 53/60/3 55/10/3 31/9/3 32/61/3
f 5/14/4 6/62/4 10/63/4 23/15/4
f 45/64/6 41/65/6 13/28/6 14/27/6
f 33/66/6 39/67/6 18/68/6 17/69/6
f 64/70/3 67/71/3 22/72/3 21/73/3
f 42/74/1 46/75/1 20/76/1 19/77/1
f 56/24/5 54/23/5 16/78/5 15/79/5
f 71/80/2 42/81/2 19/82/2 68/83/2
f 54/23/5 29/22/5 93/84/5 90/85/5
f 22/72/3 67/71/3 86/86/3 87/87/3
f 59/88/2 48/17/2 30/20/2 56/89/2
f 3/30/6 2/29/6 39/67/6 33/66/6
f 72/90/5 69/91/5 98/91/5 97/90/5
f 53/92/2 32/93/2 36/43/2 57/55/2
f 67/71/3 28/94/3 95/95/3 86/86/3
f 21/96/1 22/97/1 37/47/1 40/46/1
f 32/93/2 26/98/2 35/44/2 36/43/2
f 46/99/1 11/100/1 74/101/1 88/102/1
f 64/103/2 21/104/2 40/6/2 70/5/2
f 49/36/2 9/35/2 48/17/2 59/88/2
f 23/105/4 10/106/4 47/107/4 44/108/4
f 18/68/6 39/67/6 84/109/6 85/110/6
f 66/42/2 12/41/2 42/81/2 71/80/2
f 12/4/1 11/3/1 46/75/1 42/74/1
f 15/111/6 16/112/6 41/65/6 45/64/6
f 13/113/6 41/114/6 76/102/6 77/101/6
f 9/35/2 24/48/2 43/18/2 48/17/2
f 10/115/4 52/116/4 47/117/4
f 14/118/2 49/36/2 59/88/2 45/119/2
f 17/120/2 53/92/2 57/55/2 33/121/2
f 45/119/2 59/88/2 56/89/2 15/122/2
f 39/67/6 2/29/6 83/123/6 84/109/6
f 30/21/5 29/22/5 54/23/5 56/24/5
f 17/124/3 18/25/3 55/10/3 53/60/3
f 33/121/2 57/55/2 51/33/2 3/125/2
f 3/125/2 51/33/2 49/36/2 14/118/2
f 6/62/4 50/126/4 52/127/4 10/63/4
f 37/47/1 22/97/1 87/128/1 78/129/1
f 62/22/5 20/130/5 89/131/5 79/84/5
f 24/48/2 66/42/2 71/80/2 43/18/2
f 26/98/2 64/103/2 70/5/2 35/44/2
f 41/65/6 16/112/6 91/132/6 76/133/6
f 43/18/2 71/80/2 68/83/2 27/19/2
f 26/134/3 28/94/3 67/71/3 64/70/3
f 97/43/4 103/33/4 104/36/4 92/17/4 81/18/4 82/135/4 75/136/4 98/137/4
f 16/78/5 54/23/5 90/85/5 91/138/5
f 4/45/2 63/8/2 66/42/2 24/48/2
f 19/139/5 20/130/5 62/22/5 68/21/5
f 72/140/2 69/141/2 107/142/2 60/143/2 58/144/2 105/145/2 106/146/2 108/147/2
f 35/44/2 70/5/2 63/8/2 4/45/2
f 61/148/4 38/149/4 5/150/4
f 50/151/4 6/150/4 34/149/4
f 44/152/4 65/151/4 23/153/4
f 100/154/4 84/155/4 83/125/4 103/33/4
f 103/33/4 83/125/4 77/118/4 104/36/4
f 102/156/4 81/18/4 80/19/4 79/83/4
f 99/157/4 98/137/4 75/136/4
f 101/158/4 76/159/4 91/122/4 90/89/4
f 81/18/4 92/17/4 93/20/4 80/19/4
f 95/98/4 94/160/4 97/43/4 98/137/4
f 86/161/4 95/98/4 98/137/4 99/157/4
f 96/162/4 85/163/4 84/155/4 100/154/4
f 104/36/4 77/118/4 76/159/4 101/158/4
f 82/135/4 81/18/4 102/156/4
f 94/160/4 96/162/4 100/154/4 97/43/4
f 92/17/4 101/158/4 90/89/4 93/20/4
f 97/43/4 100/154/4 103/33/4
f 74/164/4 82/135/4 102/156/4 88/165/4
f 87/166/4 86/161/4 99/157/4 78/167/4
f 78/167/4 99/157/4 75/136/4 73/168/4
f 88/165/4 102/156/4 79/83/4 89/82/4
f 73/168/4 75/136/4 82/135/4 74/164/4
f 92/17/4 104/36/4 101/158/4
f 58/169/3 105/170/3 92/170/3 81/171/3
f 20/76/1 46/75/1 88/133/1 89/132/1
f 8/2/1 37/47/1 78/129/1 73/123/1
f 106/172/1 108/173/1 103/174/1 104/172/1
f 25/23/5 62/22/5 79/84/5 80/85/5
f 50/175/7 34/176/7 72/177/7 108/178/7
f 38/179/8 61/180/8 107/181/8 69/182/8
f 47/183/9 52/184/9 106/185/9 105/186/9
f 65/183/10 44/187/10 58/188/10 60/186/10
f 13/189/4 52/190/4 50/191/4 2/192/4
f 83/193/5 2/194/5 50/175/5 108/178/5
f 77/195/3 106/185/3 52/184/3 13/196/3
f 77/197/11 83/123/11 108/198/11 106/199/11
f 95/200/12 69/201/12 72/202/12 94/203/12
f 95/204/6 28/179/6 38/179/6 69/182/6
f 72/90/1 34/90/1 31/205/1 94/90/1
f 28/192/4 31/189/4 34/206/4 38/207/4
f 11/190/4 8/191/4 61/192/4 65/189/4
f 11/208/3 65/183/3 60/186/3 74/209/3
f 74/197/13 60/199/13 107/198/13 73/123/13
f 107/181/5 61/180/5 8/193/5 73/194/5
f 80/210/6 58/188/6 44/187/6 25/187/6
f 29/183/1 47/183/1 105/186/1 93/211/1
f 58/212/14 80/213/14 93/84/14 105/214/14
