# Blender 4.4.3
# www.blender.org
mtllib right_left.mtl
o RightLeft
v -2.000000 -1.000000 2.000000
v -1.500000 0.000000 1.500000
v -2.000000 0.250000 2.000000
v -2.000000 -1.000000 -2.000000
v -1.500000 0.000000 -1.500000
v -2.000000 0.250000 -2.000000
v 2.000000 -1.000000 2.000000
v 1.500000 0.000000 1.500000
v 2.000000 0.250000 2.000000
v 2.000000 -1.000000 -2.000000
v 1.500000 0.000000 -1.500000
v 2.000000 0.250000 -2.000000
v -2.000000 0.000000 1.500000
v -2.000000 0.250000 1.500000
v -2.000000 0.250000 -1.500000
v -2.000000 0.000000 -1.500000
v -1.500000 0.000000 -2.000000
v -1.500000 0.250000 -2.000000
v 1.500000 0.250000 -2.000000
v 1.500000 0.000000 -2.000000
v -1.500000 0.250000 1.500000
v 1.500000 0.250000 -1.500000
v -1.500000 0.250000 -1.500000
v 1.500000 0.250000 1.500000
v 2.000000 0.250000 1.500000
v 2.000000 0.000000 -1.500000
v 2.000000 0.250000 -1.500000
v 2.000000 0.000000 1.500000
vn -1.0000 -0.0000 -0.0000
vn -0.0000 -0.0000 -1.0000
vn 1.0000 -0.0000 -0.0000
vn -0.0000 -0.0000 1.0000
vn -0.0000 -1.0000 -0.0000
vn -0.0000 1.0000 -0.0000
vt 0.560669 0.623431
vt 0.497908 0.497908
vt 1.000000 0.497908
vt 0.497908 0.502092
vt 0.000000 0.502092
vt 0.435146 0.627615
vt 0.937238 0.623431
vt 0.497908 0.656904
vt 1.000000 0.000000
vt 0.497908 0.000000
vt 0.497908 0.502092
vt 0.000000 0.439330
vt 0.062762 0.439330
vt 0.000000 -0.000000
vt 0.062762 0.062761
vt 0.000000 0.062761
vt 0.497908 0.062761
vt 0.435146 -0.000000
vt 0.497908 -0.000000
vt 0.000000 0.627615
vt 0.062761 0.656904
vt 0.062761 0.627615
vt 0.497908 0.623431
vt 0.435146 0.656904
vt 0.435146 0.439330
vt 0.435146 0.062761
vt 0.062762 -0.000000
vt 0.560669 0.656904
vt 0.497908 0.439330
vt 0.000000 0.656904
vt 0.497908 0.627615
vt 1.000000 0.656904
vt 0.937238 0.656904
vt 1.000000 0.502092
s 0
usemtl RightLeft
f 16/1/1 4/2/1 1/3/1
f 10/4/2 4/5/2 20/6/2
f 7/3/3 10/2/3 28/7/3
f 9/8/4 1/5/4 7/4/4
f 10/9/5 1/4/5 4/10/5
f 3/11/6 25/12/6 24/13/6
f 12/14/6 22/15/6 27/16/6
f 15/17/6 18/18/6 6/19/6
f 13/20/2 21/21/2 2/22/2
f 11/1/1 19/8/1 20/23/1
f 2/22/2 24/24/2 8/6/2
f 2/25/6 11/15/6 5/26/6
f 5/26/6 20/27/6 17/18/6
f 5/1/3 18/8/3 23/28/3
f 5/26/6 13/29/6 2/25/6
f 5/22/4 15/30/4 16/20/4
f 11/15/6 28/12/6 26/16/6
f 11/6/4 27/8/4 22/24/4
f 8/6/2 25/8/2 28/31/2
f 16/1/1 15/28/1 6/8/1
f 1/3/1 3/32/1 14/33/1
f 1/3/1 14/33/1 13/7/1
f 16/1/1 6/8/1 4/2/1
f 1/3/1 13/7/1 16/1/1
f 20/6/2 19/24/2 12/8/2
f 4/5/2 6/30/2 18/21/2
f 4/5/2 18/21/2 17/22/2
f 20/6/2 12/8/2 10/4/2
f 4/5/2 17/22/2 20/6/2
f 25/33/3 9/32/3 7/3/3
f 10/2/3 12/8/3 27/28/3
f 10/2/3 27/28/3 26/1/3
f 28/7/3 25/33/3 7/3/3
f 10/2/3 26/1/3 28/7/3
f 9/8/4 3/30/4 1/5/4
f 10/9/5 7/34/5 1/4/5
f 21/25/6 14/29/6 3/11/6
f 3/11/6 9/5/6 25/12/6
f 24/13/6 21/25/6 3/11/6
f 12/14/6 19/27/6 22/15/6
f 15/17/6 23/26/6 18/18/6
f 13/20/2 14/30/2 21/21/2
f 11/1/1 22/28/1 19/8/1
f 2/22/2 21/21/2 24/24/2
f 2/25/6 8/13/6 11/15/6
f 5/26/6 11/15/6 20/27/6
f 5/1/3 17/23/3 18/8/3
f 5/26/6 16/17/6 13/29/6
f 5/22/4 23/21/4 15/30/4
f 11/15/6 8/13/6 28/12/6
f 11/6/4 26/31/4 27/8/4
f 8/6/2 24/24/2 25/8/2
