# Blender 4.4.3
# www.blender.org
mtllib right_front.mtl
o RightFront
v -1.500000 -1.000000 6.000000
v -1.500000 -0.000000 -6.000000
v -1.500001 -1.000000 -6.000000
v -1.500000 -1.000000 1.500000
v -1.499999 -0.000000 1.500000
v -1.500000 -0.000000 -1.500000
v -1.500000 -1.000000 -1.500000
v -1.499999 -0.000000 6.000000
v 1.500000 -1.000000 -1.500000
v 1.500000 -0.000000 -1.500000
v 1.500000 -0.000000 6.000000
v 1.500000 -1.000000 6.000000
v 1.500000 -0.000000 -6.000000
v 1.499999 -1.000000 -6.000000
v 6.000000 -1.000000 -6.000000
v 6.000000 0.000000 -6.000000
v -6.000001 -1.000000 -6.000000
v -6.000000 0.000000 -6.000000
v 6.000000 -1.000000 6.000000
v 6.000000 0.000000 6.000000
v -6.000000 -1.000000 6.000000
v -5.999999 0.000000 6.000000
v 1.500000 -0.000000 1.500000
v 1.500000 -1.000000 1.500000
v 6.000000 0.000000 1.500000
v -6.000001 -1.000000 1.500000
v 6.000000 -1.000000 1.500000
v -6.000000 0.000000 1.500000
v 6.000000 0.000000 -1.500000
v 6.000000 -1.000000 -1.500000
v -6.000000 0.000000 -1.500000
v -6.000001 -1.000000 -1.500000
v -5.900001 -1.000000 -6.000000
v -5.900000 0.000000 -1.500000
v -5.900001 -1.000000 1.500000
v -5.900001 -1.000000 -1.500000
v -5.899999 0.000000 6.000000
v -5.900000 0.000000 1.500000
v -5.900000 0.000000 -6.000000
v -5.900001 -1.000000 6.000000
v 5.900000 0.000000 -6.000000
v 5.900001 -1.000000 6.000000
v 5.900000 -1.000000 1.500000
v 5.900000 0.000000 1.500000
v 5.900000 -1.000000 -6.000000
v 5.900001 0.000000 6.000000
v 5.900000 0.000000 -1.500000
v 5.900000 -1.000000 -1.500000
v 1.499999 -1.000000 -5.900000
v -1.500000 -0.000000 -5.900000
v -1.500001 -1.000000 -5.900000
v 1.500000 -0.000000 -5.900000
v -6.000001 -1.000000 -5.900000
v 6.000000 0.000000 -5.900001
v -6.000000 0.000000 -5.900000
v 6.000000 -1.000000 -5.900001
v -5.900001 -1.000000 -5.900000
v 5.900001 4.900000 1.500000
v 5.900000 -1.000000 -5.900001
v 1.500001 4.900000 5.900000
v -1.499999 -0.000000 5.900000
v 6.000000 0.000000 5.900000
v -1.500000 -1.000000 5.900000
v -6.000000 -1.000000 5.900001
v 1.500000 -0.000000 5.900000
v 1.500000 -1.000000 5.900000
v -5.999999 0.000000 5.900001
v 6.000000 -1.000000 5.900000
v -5.899999 4.900000 1.500000
v -5.900001 -1.000000 5.900001
v 5.900001 -1.000000 5.900000
v -5.899999 4.900000 -1.500000
v -1.499999 5.000000 6.000000
v 1.500001 5.000000 6.000000
v -1.499999 5.000000 5.900000
v 5.900001 5.000000 -6.000000
v 1.500000 5.000000 -6.000000
v -5.899999 5.000000 6.000000
v 6.000001 5.000000 5.900000
v 6.000000 5.000000 1.500000
v 5.900001 5.000000 1.500000
v 1.500001 5.000000 5.900000
v -1.499999 5.000000 -6.000000
v -5.899999 5.000000 -6.000000
v -5.999999 5.000000 -6.000000
v -5.999999 5.000000 5.900001
v -5.999999 5.000000 6.000000
v 5.900001 5.000000 6.000000
v 6.000001 5.000000 6.000000
v 6.000000 5.000000 -5.900001
v 6.000000 5.000000 -6.000000
v 5.900001 5.000000 -1.500000
v 6.000000 5.000000 -1.500000
v -5.999999 5.000000 -1.500000
v -5.999999 5.000000 1.500000
v -5.999999 5.000000 -5.900000
v -5.899999 5.000000 -1.500000
v -5.899999 5.000000 1.500000
v -5.899999 5.000000 5.900001
v -5.899999 5.000000 -5.900000
v 5.900001 5.000000 -5.900001
v 5.900001 5.000000 5.900000
v -1.499999 5.000000 -5.900000
v 1.500000 5.000000 -5.900000
v 5.900001 4.900000 -1.500000
v 1.500000 4.900000 -5.900000
v -1.499999 4.900000 5.900000
v -1.499999 4.900000 -5.900000
vn -0.0000 -0.0000 -1.0000
vn -0.0000 1.0000 -0.0000
vn 1.0000 -0.0000 -0.0000
vn -0.0000 -1.0000 -0.0000
vn -1.0000 -0.0000 -0.0000
vn -0.0000 -0.0000 1.0000
vn -0.7071 -0.0000 -0.7071
vn -0.7071 -0.0000 0.7071
vn 0.7071 -0.0000 -0.7071
vn 0.7071 -0.0000 0.7071
vn -0.0000 0.7071 0.7071
vn 0.7071 0.7071 -0.0000
vn -0.0000 0.7071 -0.7071
vt 0.083349 0.383284
vt 0.136751 0.365483
vt 0.083349 0.365483
vt 0.409827 0.712032
vt 0.530092 0.709299
vt 0.409827 0.709299
vt 0.007357 0.368960
vt 0.095517 0.469142
vt 0.095517 0.368960
vt 0.077072 0.560085
vt 0.002367 0.611020
vt 0.002367 0.560085
vt 0.732356 0.589034
vt 0.735089 0.507035
vt 0.732356 0.507035
vt 0.625000 0.750000
vt 0.375000 0.844906
vt 0.375000 0.750000
vt 0.005353 0.368960
vt 0.007357 0.469142
vt 0.136751 0.365483
vt 0.083349 0.383284
vt 0.083349 0.365483
vt 0.625000 0.844906
vt 0.375000 0.907090
vt 0.530092 0.507035
vt 0.612091 0.386770
vt 0.530092 0.386770
vt 0.004619 0.368951
vt 0.096429 0.348319
vt 0.004619 0.348319
vt 0.530092 0.712032
vt 0.612091 0.709299
vt 0.409827 0.589034
vt 0.409827 0.507035
vt 0.005026 0.383284
vt 0.005026 0.365483
vt 0.612091 0.589034
vt 0.612091 0.507035
vt 0.625000 0.663554
vt 0.625000 0.624436
vt 0.625000 0.907090
vt 0.409827 0.386770
vt 0.096317 0.611662
vt 0.020080 0.559682
vt 0.096317 0.559682
vt 0.095517 0.348924
vt 0.007357 0.348924
vt 0.128007 0.560085
vt 0.077072 0.611020
vt 0.215074 0.383284
vt 0.215074 0.365483
vt 0.005026 0.365483
vt 0.003246 0.383284
vt 0.003246 0.365483
vt 0.096064 0.368768
vt 0.098101 0.348399
vt 0.096064 0.348399
vt 0.215074 0.383284
vt 0.216854 0.365483
vt 0.215074 0.365483
vt 0.625000 1.000000
vt 0.375000 1.000000
vt 0.732356 0.712032
vt 0.735089 0.709299
vt 0.732356 0.709299
vt 0.098101 0.470615
vt 0.098101 0.368768
vt 0.735089 0.386770
vt 0.732356 0.386770
vt 0.005026 0.383284
vt 0.719906 0.500000
vt 0.782090 0.500000
vt 0.407093 0.507035
vt 0.407093 0.386770
vt 0.006439 0.368768
vt 0.096064 0.470615
vt 0.003246 0.383284
vt 0.003246 0.365483
vt 0.407093 0.589034
vt 0.097835 0.362834
vt 0.186845 0.472717
vt 0.186845 0.362834
vt 0.407093 0.712032
vt 0.407093 0.709299
vt 0.136237 0.478143
vt 0.085194 0.553007
vt 0.085194 0.478143
vt 0.003246 0.472287
vt 0.612091 0.712032
vt 0.136751 0.383284
vt 0.216854 0.383284
vt 0.216854 0.365483
vt 0.186845 0.362834
vt 0.097835 0.472717
vt 0.097835 0.362834
vt 0.211100 0.478143
vt 0.136237 0.553007
vt 0.732356 0.384036
vt 0.612091 0.384036
vt 0.409827 0.384036
vt 0.407093 0.384036
vt 0.735089 0.384036
vt 0.005026 0.472287
vt 0.005353 0.348924
vt 0.530092 0.384036
vt 0.202712 0.560085
vt 0.128007 0.611020
vt 0.005026 0.472287
vt 0.215074 0.472287
vt 0.735089 0.589034
vt 0.006439 0.348399
vt 0.732356 0.507035
vt 0.612091 0.709299
vt 0.409827 0.589034
vt 0.530092 0.589034
vt 0.084451 0.795672
vt 0.011947 0.917611
vt 0.133885 0.990114
vt 0.160057 0.478143
vt 0.085194 0.553006
vt 0.085194 0.478143
vt 0.010331 0.478143
vt 0.409827 0.384036
vt 0.530092 0.386770
vt 0.409827 0.386770
vt 0.530092 0.384036
vt 0.732356 0.589034
vt 0.409827 0.709299
vt 0.530092 0.709299
vt 0.732356 0.384036
vt 0.732356 0.386770
vt 0.407093 0.507035
vt 0.407093 0.589034
vt 0.407093 0.709299
vt 0.407093 0.384036
vt 0.407093 0.386770
vt 0.409827 0.507035
vt 0.612091 0.712032
vt 0.409827 0.712032
vt 0.407093 0.712032
vt 0.530092 0.712032
vt 0.735089 0.712032
vt 0.782090 0.750000
vt 0.719906 0.750000
vt 0.719906 0.750000
vt 0.216854 0.472287
vt 0.216854 0.383284
vt 0.083349 0.472287
vt 0.875000 0.624436
vt 0.875000 0.663554
vt 0.097410 0.357967
vt 0.003059 0.463040
vt 0.003059 0.357967
vt 0.003059 0.465184
vt 0.097410 0.360111
vt 0.097410 0.465184
vt 0.136731 0.694636
vt 0.083315 0.781883
vt 0.083315 0.694636
vt 0.215074 0.781883
vt 0.136731 0.781883
vt 0.004972 0.781883
vt 0.004972 0.694636
vt 0.090782 0.611642
vt 0.092567 0.558095
vt 0.092567 0.611642
vt 0.000915 0.357967
vt 0.000915 0.465184
vt 1.422592 0.728570
vt 1.429394 0.395304
vt 1.429394 0.735371
vt 0.136751 0.470507
vt 0.136751 0.472287
vt 0.096429 0.470052
vt 0.004619 0.472115
vt 0.096429 0.472115
vt 0.097410 0.357967
vt 0.625000 0.342910
vt 0.090782 0.558095
vt 0.090782 0.558095
vt 0.217181 0.708772
vt 0.008976 0.713021
vt 0.004727 0.708772
vt 0.003059 0.360111
vt 0.005353 0.469142
vt 0.136751 0.383284
vt 0.096429 0.368951
vt 0.020080 0.611662
vt 0.006439 0.470615
vt 0.202712 0.611020
vt 0.003246 0.472287
vt 0.206389 0.917611
vt 0.206389 0.868176
vt 0.133885 0.795672
vt 0.011947 0.868176
vt 0.084451 0.990114
vt 0.875000 0.624436
vt 0.097410 0.463040
vt 0.215074 0.694636
vt 1.422592 0.395304
vt 0.083349 0.470507
vt 0.004619 0.470052
vt 0.090782 0.611642
vt 0.217181 0.713021
s 0
usemtl Front
f 8/1/1 12/2/1 1/3/1
f 40/4/2 63/5/2 70/6/2
f 55/7/3 94/8/3 31/9/3
f 5/10/4 65/11/4 61/12/4
f 43/13/2 30/14/2 48/15/2
f 62/16/5 27/17/5 68/18/5
f 18/19/3 96/20/3 55/7/3
f 14/21/6 2/22/6 3/23/6
f 25/24/5 30/25/5 27/17/5
f 7/26/2 49/27/2 51/28/2
f 31/29/3 26/30/3 32/31/3
f 1/32/2 66/33/2 63/5/2
f 35/34/2 7/26/2 36/35/2
f 37/36/1 1/3/1 40/37/1
f 7/26/2 24/38/2 9/39/2
f 60/40/6 75/41/6 107/41/6
f 25/24/5 93/42/5 29/42/5
f 36/35/2 51/28/2 57/43/2
f 34/44/4 5/45/4 38/46/4
f 55/7/3 32/47/3 53/48/3
f 6/49/4 23/50/4 5/10/4
f 41/51/6 14/21/6 45/52/6
f 33/53/6 18/54/6 17/55/6
f 67/56/3 21/57/3 64/58/3
f 46/59/1 19/60/1 42/61/1
f 54/62/5 15/63/5 56/63/5
f 42/64/2 68/65/2 71/66/2
f 29/42/5 90/62/5 54/62/5
f 67/56/3 87/67/3 22/68/3
f 48/15/2 56/69/2 59/70/2
f 3/23/6 39/71/6 33/53/6
f 69/72/5 97/73/5 72/73/5
f 32/74/2 57/43/2 53/75/2
f 28/76/3 86/77/3 67/56/3
f 22/78/1 40/37/1 21/79/1
f 26/80/2 36/35/2 32/74/2
f 11/81/1 88/82/1 46/83/1
f 21/84/2 70/6/2 64/85/2
f 9/39/2 59/70/2 49/27/2
f 10/86/4 44/87/4 23/88/4
f 39/71/6 85/89/6 18/54/6
f 12/90/2 71/66/2 66/33/2
f 11/91/1 42/61/1 12/2/1
f 16/92/6 45/52/6 15/93/6
f 41/94/6 77/95/6 13/96/6
f 24/38/2 48/15/2 9/39/2
f 10/86/4 52/97/4 47/98/4
f 49/27/2 45/99/2 14/100/2
f 53/75/2 33/101/2 17/102/2
f 59/70/2 15/103/2 45/99/2
f 2/22/6 84/104/6 39/71/6
f 29/42/5 56/63/5 30/25/5
f 18/19/3 53/48/3 17/105/3
f 57/43/2 3/106/2 33/101/2
f 51/28/2 14/100/2 3/106/2
f 50/107/4 10/108/4 6/49/4
f 22/78/1 78/109/1 37/36/1
f 20/16/5 79/16/5 62/16/5
f 66/33/2 43/13/2 24/38/2
f 64/85/2 35/34/2 26/80/2
f 16/92/6 76/110/6 41/51/6
f 71/66/2 27/111/2 43/13/2
f 28/76/3 64/58/3 26/112/3
f 92/113/4 82/114/4 98/115/4
f 54/62/5 91/62/5 16/62/5
f 4/116/2 66/33/2 24/38/2
f 20/16/5 68/18/5 19/18/5
f 60/117/2 105/118/2 108/119/2
f 70/6/2 4/116/2 35/34/2
f 61/120/4 38/121/4 5/122/4
f 50/123/4 6/122/4 34/121/4
f 44/87/4 65/123/4 23/88/4
f 84/124/4 103/125/4 100/126/4
f 83/127/4 104/27/4 103/125/4
f 81/128/4 79/65/4 102/66/4
f 99/129/4 98/115/4 75/130/4
f 76/131/4 90/69/4 101/132/4
f 92/113/4 80/111/4 81/128/4
f 94/133/4 98/115/4 95/134/4
f 95/134/4 99/129/4 86/135/4
f 85/136/4 100/126/4 96/137/4
f 77/100/4 101/132/4 104/27/4
f 82/114/4 81/128/4 102/66/4
f 96/137/4 97/138/4 94/133/4
f 101/132/4 93/14/4 92/113/4
f 97/138/4 100/126/4 103/125/4
f 82/114/4 88/64/4 74/139/4
f 86/135/4 78/140/4 87/141/4
f 99/129/4 73/142/4 78/140/4
f 102/66/4 89/143/4 88/64/4
f 75/130/4 74/139/4 73/142/4
f 92/113/4 104/27/4 101/132/4
f 105/144/3 81/145/3 58/146/3
f 46/59/1 89/147/1 20/148/1
f 37/36/1 73/149/1 8/1/1
f 108/150/1 104/151/1 106/151/1
f 62/16/5 80/24/5 25/24/5
f 34/152/7 108/153/7 50/154/7
f 61/155/8 69/156/8 38/157/8
f 47/158/3 58/159/3 44/160/3
f 47/158/9 106/161/9 105/162/9
f 44/160/10 60/163/10 65/164/10
f 52/165/4 2/166/4 13/167/4
f 2/168/5 108/153/5 83/169/5
f 106/170/3 13/171/3 77/172/3
f 83/149/11 106/173/11 77/174/11
f 69/175/12 94/176/12 95/177/12
f 28/157/6 69/156/6 95/178/6
f 72/73/1 31/179/1 94/73/1
f 31/167/4 38/180/4 28/166/4
f 8/181/4 65/167/4 11/165/4
f 11/182/3 60/183/3 74/184/3
f 60/173/13 73/149/13 74/174/13
f 107/185/5 8/169/5 73/168/5
f 8/1/1 11/91/1 12/2/1
f 40/4/2 1/32/2 63/5/2
f 55/7/3 96/20/3 94/8/3
f 5/10/4 23/50/4 65/11/4
f 43/13/2 27/111/2 30/14/2
f 62/16/5 25/24/5 27/17/5
f 18/19/3 85/186/3 96/20/3
f 14/21/6 13/187/6 2/22/6
f 25/24/5 29/42/5 30/25/5
f 7/26/2 9/39/2 49/27/2
f 31/29/3 28/188/3 26/30/3
f 1/32/2 12/90/2 66/33/2
f 35/34/2 4/116/2 7/26/2
f 37/36/1 8/1/1 1/3/1
f 7/26/2 4/116/2 24/38/2
f 60/40/6 82/40/6 75/41/6
f 25/24/5 80/24/5 93/42/5
f 36/35/2 7/26/2 51/28/2
f 34/44/4 6/189/4 5/45/4
f 55/7/3 31/9/3 32/47/3
f 6/49/4 10/108/4 23/50/4
f 41/51/6 13/187/6 14/21/6
f 33/53/6 39/71/6 18/54/6
f 67/56/3 22/68/3 21/57/3
f 46/59/1 20/148/1 19/60/1
f 54/62/5 16/62/5 15/63/5
f 42/64/2 19/143/2 68/65/2
f 29/42/5 93/42/5 90/62/5
f 67/56/3 86/77/3 87/67/3
f 48/15/2 30/14/2 56/69/2
f 3/23/6 2/22/6 39/71/6
f 69/72/5 98/72/5 97/73/5
f 32/74/2 36/35/2 57/43/2
f 28/76/3 95/190/3 86/77/3
f 22/78/1 37/36/1 40/37/1
f 26/80/2 35/34/2 36/35/2
f 11/81/1 74/95/1 88/82/1
f 21/84/2 40/4/2 70/6/2
f 9/39/2 48/15/2 59/70/2
f 10/86/4 47/98/4 44/87/4
f 39/71/6 84/104/6 85/89/6
f 12/90/2 42/64/2 71/66/2
f 11/91/1 46/59/1 42/61/1
f 16/92/6 41/51/6 45/52/6
f 41/94/6 76/82/6 77/95/6
f 24/38/2 43/13/2 48/15/2
f 49/27/2 59/70/2 45/99/2
f 53/75/2 57/43/2 33/101/2
f 59/70/2 56/69/2 15/103/2
f 2/22/6 83/149/6 84/104/6
f 29/42/5 54/62/5 56/63/5
f 18/19/3 55/7/3 53/48/3
f 57/43/2 51/28/2 3/106/2
f 51/28/2 49/27/2 14/100/2
f 50/107/4 52/191/4 10/108/4
f 22/78/1 87/192/1 78/109/1
f 20/16/5 89/16/5 79/16/5
f 66/33/2 71/66/2 43/13/2
f 64/85/2 70/6/2 35/34/2
f 16/92/6 91/147/6 76/110/6
f 71/66/2 68/65/2 27/111/2
f 28/76/3 67/56/3 64/58/3
f 98/115/4 97/138/4 103/125/4
f 103/125/4 104/27/4 92/113/4
f 92/113/4 81/128/4 82/114/4
f 82/114/4 75/130/4 98/115/4
f 98/115/4 103/125/4 92/113/4
f 54/62/5 90/62/5 91/62/5
f 4/116/2 63/5/2 66/33/2
f 20/16/5 62/16/5 68/18/5
f 108/119/2 72/193/2 69/194/2
f 69/194/2 107/195/2 60/117/2
f 60/117/2 58/196/2 105/118/2
f 105/118/2 106/197/2 108/119/2
f 108/119/2 69/194/2 60/117/2
f 70/6/2 63/5/2 4/116/2
f 84/124/4 83/127/4 103/125/4
f 83/127/4 77/100/4 104/27/4
f 81/128/4 80/111/4 79/65/4
f 76/131/4 91/103/4 90/69/4
f 92/113/4 93/14/4 80/111/4
f 94/133/4 97/138/4 98/115/4
f 95/134/4 98/115/4 99/129/4
f 85/136/4 84/124/4 100/126/4
f 77/100/4 76/131/4 101/132/4
f 96/137/4 100/126/4 97/138/4
f 101/132/4 90/69/4 93/14/4
f 82/114/4 102/66/4 88/64/4
f 86/135/4 99/129/4 78/140/4
f 99/129/4 75/130/4 73/142/4
f 102/66/4 79/65/4 89/143/4
f 75/130/4 82/114/4 74/139/4
f 105/144/3 92/144/3 81/145/3
f 46/59/1 88/110/1 89/147/1
f 37/36/1 78/109/1 73/149/1
f 108/150/1 103/198/1 104/151/1
f 62/16/5 79/16/5 80/24/5
f 34/152/7 72/199/7 108/153/7
f 61/155/8 107/185/8 69/156/8
f 47/158/3 105/162/3 58/159/3
f 47/158/9 52/200/9 106/161/9
f 44/160/10 58/159/10 60/163/10
f 52/165/4 50/181/4 2/166/4
f 2/168/5 50/154/5 108/153/5
f 106/170/3 52/201/3 13/171/3
f 83/149/11 108/202/11 106/173/11
f 69/175/12 72/203/12 94/176/12
f 28/157/6 38/157/6 69/156/6
f 72/73/1 34/73/1 31/179/1
f 31/167/4 34/204/4 38/180/4
f 8/181/4 61/166/4 65/167/4
f 11/182/3 65/205/3 60/183/3
f 60/173/13 107/202/13 73/149/13
f 107/185/5 61/155/5 8/169/5
