# Blender 4.4.3
# www.blender.org
mtllib right_left_front.mtl
o RightLeftFront
v -6.000001 -1.000000 -1.499997
v 5.999999 -0.000000 -1.500003
v 5.999999 -1.000000 -1.500004
v -1.500001 -1.000000 -1.500000
v -1.500001 -0.000000 -1.499999
v 1.499999 -0.000000 -1.500000
v 1.499999 -1.000000 -1.500001
v -6.000001 -0.000000 -1.499996
v 1.500001 -1.000000 1.499999
v 1.500001 -0.000000 1.499999
v -5.999999 -0.000000 1.500003
v -5.999999 -1.000000 1.500003
v 6.000001 -0.000000 1.499997
v 6.000001 -1.000000 1.499996
v 6.000003 -1.000000 5.999997
v 6.000003 0.000000 5.999997
v 5.999997 -1.000000 -6.000004
v 5.999997 0.000000 -6.000003
v -5.999997 -1.000000 6.000003
v -5.999997 0.000000 6.000003
v -6.000003 -1.000000 -5.999998
v -6.000003 0.000000 -5.999996
v -1.499999 -0.000000 1.500001
v -1.499999 -1.000000 1.500000
v -1.499997 0.000000 6.000001
v -1.500003 -1.000000 -6.000000
v -1.499997 -1.000000 6.000001
v -1.500003 0.000000 -5.999999
v 1.500003 0.000000 5.999999
v 1.500003 -1.000000 5.999999
v 1.499997 0.000000 -6.000000
v 1.499997 -1.000000 -6.000002
v 5.999997 -1.000000 -5.900004
v 1.499997 0.000000 -5.900001
v -1.500003 -1.000000 -5.900000
v 1.499997 -1.000000 -5.900002
v -6.000003 0.000000 -5.899996
v -1.500003 0.000000 -5.899999
v 5.999997 0.000000 -5.900003
v -6.000003 -1.000000 -5.899998
v 6.000003 0.000000 5.899997
v -5.999997 -1.000000 5.900003
v -1.499997 -1.000000 5.900001
v -1.499997 0.000000 5.900001
v 6.000003 -1.000000 5.899997
v -5.999997 0.000000 5.900003
v 1.500003 0.000000 5.899999
v 1.500003 -1.000000 5.899999
v 5.900001 -1.000000 1.499997
v 5.899999 -0.000000 -1.500003
v 5.899999 -1.000000 -1.500003
v 5.900001 -0.000000 1.499997
v 5.899997 -1.000000 -6.000004
v 5.900003 0.000000 5.999997
v 5.899997 0.000000 -6.000003
v 5.900003 -1.000000 5.999997
v 5.899997 -1.000000 -5.900004
v -1.499997 4.900000 5.900002
v 5.900003 -1.000000 5.899997
v -5.899999 4.900000 1.500004
v -5.900001 -0.000000 -1.499996
v -5.899997 0.000000 6.000003
v -5.900001 -1.000000 -1.499997
v -5.900003 -1.000000 -5.999998
v -5.899999 -0.000000 1.500003
v -5.899999 -1.000000 1.500003
v -5.900003 0.000000 -5.999996
v -5.899997 -1.000000 6.000003
v -1.500003 4.900000 -5.899998
v -5.900003 -1.000000 -5.899998
v -5.899997 -1.000000 5.900003
v 1.499997 4.900000 -5.900000
v -6.000001 5.000000 -1.499996
v -5.999999 5.000000 1.500004
v -5.900001 5.000000 -1.499996
v 6.000003 5.000000 5.899998
v 6.000001 5.000000 1.499997
v -6.000003 5.000000 -5.899996
v -5.899997 5.000000 6.000004
v -1.499997 5.000000 6.000001
v -1.499997 5.000000 5.900002
v -5.899999 5.000000 1.500004
v 5.999999 5.000000 -1.500002
v 5.999997 5.000000 -5.900002
v 5.999997 5.000000 -6.000002
v -5.900003 5.000000 -5.999996
v -6.000003 5.000000 -5.999996
v -5.999997 5.000000 5.900004
v -5.999997 5.000000 6.000004
v 5.900003 5.000000 5.999998
v 6.000003 5.000000 5.999998
v 1.500003 5.000000 5.900000
v 1.500003 5.000000 6.000000
v 1.499997 5.000000 -6.000000
v -1.500003 5.000000 -5.999998
v 5.899997 5.000000 -6.000002
v 1.499997 5.000000 -5.900000
v -1.500003 5.000000 -5.899998
v -5.900003 5.000000 -5.899996
v 5.899997 5.000000 -5.900002
v 5.900003 5.000000 5.899998
v -5.899997 5.000000 5.900004
v 5.899999 5.000000 -1.500002
v 5.900001 5.000000 1.499997
v 1.500003 4.900000 5.900000
v 5.900001 4.900000 1.499997
v -5.900001 4.900000 -1.499996
v 5.899999 4.900000 -1.500002
vn 1.0000 -0.0000 -0.0000
vn -0.0000 1.0000 -0.0000
vn -0.0000 -0.0000 1.0000
vn -0.0000 -1.0000 -0.0000
vn -0.0000 -0.0000 -1.0000
vn -1.0000 -0.0000 -0.0000
vn 0.7071 -0.0000 -0.7071
vn -0.7071 -0.0000 -0.7071
vn 0.7071 -0.0000 0.7071
vn -0.7071 -0.0000 0.7071
vn -0.7071 0.7071 -0.0000
vn -0.0000 0.7071 0.7071
vn 0.7071 0.7071 -0.0000
vn -0.0000 0.7071 -0.7071
vt 0.083349 0.383284
vt 0.136751 0.365483
vt 0.083349 0.365483
vt 0.334234 0.789953
vt 0.336967 0.669687
vt 0.336967 0.789953
vt 0.007357 0.368960
vt 0.095517 0.469142
vt 0.095517 0.368960
vt 0.077072 0.560085
vt 0.002367 0.611020
vt 0.002367 0.560085
vt 0.457233 0.467423
vt 0.539232 0.464690
vt 0.539232 0.467423
vt 0.625000 0.750000
vt 0.375000 0.844906
vt 0.375000 0.750000
vt 0.005353 0.368960
vt 0.007357 0.469142
vt 0.136751 0.365483
vt 0.083349 0.383284
vt 0.083349 0.365483
vt 0.625000 0.844906
vt 0.375000 0.907090
vt 0.659497 0.669688
vt 0.539232 0.587688
vt 0.659497 0.587689
vt 0.004619 0.368951
vt 0.096429 0.348319
vt 0.004619 0.348319
vt 0.334234 0.587688
vt 0.336967 0.587688
vt 0.457233 0.789953
vt 0.539232 0.669688
vt 0.539232 0.789953
vt 0.005026 0.383284
vt 0.005026 0.365483
vt 0.457233 0.587688
vt 0.625000 0.663554
vt 0.625000 0.624436
vt 0.139257 0.611582
vt 0.137482 0.558342
vt 0.137482 0.611582
vt 0.659497 0.789953
vt 0.096317 0.559682
vt 0.020080 0.611662
vt 0.020080 0.559682
vt 0.095517 0.348924
vt 0.007357 0.348924
vt 0.128007 0.560085
vt 0.077072 0.611020
vt 0.215074 0.383284
vt 0.215074 0.365483
vt 0.005026 0.365483
vt 0.003246 0.383284
vt 0.003246 0.365483
vt 0.096064 0.368768
vt 0.098101 0.348399
vt 0.096064 0.348399
vt 0.215074 0.383284
vt 0.216854 0.365483
vt 0.215074 0.365483
vt 0.625000 1.000000
vt 0.375000 1.000000
vt 0.334234 0.467423
vt 0.336967 0.464690
vt 0.336967 0.467423
vt 0.625000 0.907090
vt 0.098101 0.470615
vt 0.098101 0.368768
vt 0.659497 0.464690
vt 0.659497 0.467423
vt 0.005026 0.383284
vt 0.719906 0.500000
vt 0.782090 0.500000
vt 0.659497 0.792686
vt 0.006439 0.368768
vt 0.096064 0.470615
vt 0.003246 0.383284
vt 0.003246 0.365483
vt 0.457232 0.792686
vt 0.539232 0.792686
vt 0.097835 0.362834
vt 0.186845 0.472717
vt 0.186845 0.362834
vt 0.334234 0.792686
vt 0.336967 0.792686
vt 0.006733 0.610536
vt 0.082932 0.558582
vt 0.082932 0.610536
vt 0.003246 0.472287
vt 0.136751 0.383284
vt 0.216854 0.383284
vt 0.216854 0.365483
vt 0.186845 0.362834
vt 0.097835 0.472717
vt 0.097835 0.362834
vt 0.136237 0.478143
vt 0.211100 0.478143
vt 0.136237 0.553007
vt 0.662230 0.467423
vt 0.662230 0.587689
vt 0.662230 0.789953
vt 0.662230 0.792686
vt 0.662230 0.464690
vt 0.083349 0.472287
vt 0.005026 0.472287
vt 0.005353 0.348924
vt 0.662230 0.669688
vt 0.202712 0.560085
vt 0.128007 0.611020
vt 0.005026 0.472287
vt 0.215074 0.472287
vt 0.457233 0.464690
vt 0.006439 0.348399
vt 0.336967 0.587688
vt 0.457233 0.789953
vt 0.457233 0.669687
vt 0.007011 0.920355
vt 0.137774 0.998106
vt 0.215525 0.867343
vt 0.160057 0.478143
vt 0.085194 0.553006
vt 0.085194 0.478143
vt 0.010331 0.478143
vt 0.085194 0.553007
vt 0.085194 0.478143
vt 0.662230 0.789953
vt 0.659497 0.789953
vt 0.336967 0.467423
vt 0.336967 0.789953
vt 0.336967 0.669687
vt 0.662230 0.467423
vt 0.659497 0.467423
vt 0.336967 0.792686
vt 0.662230 0.792686
vt 0.659497 0.792686
vt 0.539232 0.792686
vt 0.334234 0.587688
vt 0.334234 0.467423
vt 0.334234 0.789953
vt 0.334234 0.792686
vt 0.334234 0.669687
vt 0.334234 0.464690
vt 0.782090 0.750000
vt 0.719906 0.750000
vt 0.719906 0.750000
vt 0.216854 0.472287
vt 0.216854 0.383284
vt 0.875000 0.624436
vt 0.875000 0.663554
vt 0.097410 0.357967
vt 0.003059 0.463040
vt 0.003059 0.357967
vt 0.003059 0.465184
vt 0.097410 0.360111
vt 0.097410 0.465184
vt 0.097327 0.359563
vt 0.002163 0.465541
vt 0.002163 0.359563
vt 0.097327 0.359563
vt 0.090782 0.611642
vt 0.092567 0.558095
vt 0.092567 0.611642
vt 0.000915 0.357967
vt 0.000915 0.465184
vt 0.097327 0.465541
vt 0.099489 0.359563
vt 0.099489 0.467704
vt 0.136751 0.470507
vt 0.136751 0.472287
vt 0.096429 0.472115
vt 0.004619 0.470052
vt 0.004619 0.472115
vt 0.097410 0.357967
vt 0.625000 0.342910
vt 0.090782 0.611642
vt 0.090782 0.558095
vt 0.090782 0.558095
vt 0.000000 0.359563
vt 0.000000 0.467704
vt 0.083349 0.470507
vt 0.003059 0.360111
vt 0.097327 0.465541
vt 0.097327 0.467704
vt 0.002163 0.467704
vt 0.084762 0.998106
vt 0.137774 0.999874
vt 0.334234 0.669687
vt 0.005353 0.469142
vt 0.136751 0.383284
vt 0.096429 0.368951
vt 0.139257 0.558342
vt 0.096317 0.611662
vt 0.006439 0.470615
vt 0.006733 0.558582
vt 0.202712 0.611020
vt 0.003246 0.472287
vt 0.137774 0.789592
vt 0.084762 0.789592
vt 0.007011 0.867343
vt 0.215525 0.920355
vt 0.875000 0.624436
vt 0.097410 0.463040
vt 0.096429 0.470052
vt 0.084762 0.999874
s 0
usemtl Front
f 8/1/1 12/2/1 1/3/1
f 40/4/2 63/5/2 70/6/2
f 55/7/3 94/8/3 31/9/3
f 5/10/4 65/11/4 61/12/4
f 43/13/2 30/14/2 48/15/2
f 62/16/5 27/17/5 68/18/5
f 18/19/3 96/20/3 55/7/3
f 14/21/6 2/22/6 3/23/6
f 25/24/5 30/25/5 27/17/5
f 51/26/2 9/27/2 49/28/2
f 31/29/3 26/30/3 32/31/3
f 63/5/2 12/32/2 66/33/2
f 35/34/2 7/35/2 36/36/2
f 37/37/1 1/3/1 40/38/1
f 7/35/2 24/39/2 9/27/2
f 60/40/6 75/41/6 107/41/6
f 44/42/4 29/43/4 25/44/4
f 36/36/2 51/26/2 57/45/2
f 38/46/4 6/47/4 5/48/4
f 55/7/3 32/49/3 53/50/3
f 6/51/4 23/52/4 5/10/4
f 41/53/6 14/21/6 45/54/6
f 33/55/6 18/56/6 17/57/6
f 67/58/3 21/59/3 64/60/3
f 46/61/1 19/62/1 42/63/1
f 54/64/5 15/65/5 56/65/5
f 42/66/2 68/67/2 71/68/2
f 29/69/5 90/64/5 54/64/5
f 67/58/3 87/70/3 22/71/3
f 48/15/2 56/72/2 59/73/2
f 3/23/6 39/74/6 33/55/6
f 69/75/5 97/76/5 72/76/5
f 53/77/2 36/36/2 57/45/2
f 28/78/3 86/79/3 67/58/3
f 22/80/1 40/38/1 21/81/1
f 26/82/2 36/36/2 32/83/2
f 11/84/1 88/85/1 46/86/1
f 21/87/2 70/6/2 64/88/2
f 9/27/2 59/73/2 49/28/2
f 23/89/4 47/90/4 44/91/4
f 39/74/6 85/92/6 18/56/6
f 12/32/2 71/68/2 66/33/2
f 11/93/1 42/63/1 12/2/1
f 16/94/6 45/54/6 15/95/6
f 41/96/6 77/97/6 13/98/6
f 24/39/2 48/15/2 9/27/2
f 10/99/4 52/100/4 47/101/4
f 49/28/2 45/102/2 14/103/2
f 53/77/2 33/104/2 17/105/2
f 59/73/2 15/106/2 45/102/2
f 39/74/6 83/107/6 84/108/6
f 29/69/5 56/65/5 30/25/5
f 18/19/3 53/50/3 17/109/3
f 57/45/2 3/110/2 33/104/2
f 3/110/2 49/28/2 14/103/2
f 50/111/4 10/112/4 6/51/4
f 22/80/1 78/113/1 37/37/1
f 20/16/5 79/16/5 62/16/5
f 66/33/2 43/13/2 24/39/2
f 64/88/2 35/34/2 26/82/2
f 16/94/6 76/114/6 41/53/6
f 43/13/2 68/67/2 27/115/2
f 28/78/3 64/60/3 26/116/3
f 92/15/4 82/117/4 98/118/4
f 54/64/5 91/64/5 16/64/5
f 4/119/2 66/33/2 24/39/2
f 20/16/5 68/18/5 19/18/5
f 60/120/2 105/121/2 108/122/2
f 70/6/2 4/119/2 35/34/2
f 61/123/4 38/124/4 5/125/4
f 50/126/4 6/125/4 34/124/4
f 44/127/4 65/126/4 23/128/4
f 84/129/4 103/26/4 100/130/4
f 83/110/4 104/28/4 103/26/4
f 81/13/4 79/67/4 102/131/4
f 99/132/4 98/118/4 75/133/4
f 76/134/4 90/72/4 101/135/4
f 81/13/4 93/14/4 80/115/4
f 95/82/4 97/36/4 98/118/4
f 95/82/4 99/132/4 86/136/4
f 85/137/4 100/130/4 96/138/4
f 77/103/4 101/135/4 104/28/4
f 82/117/4 81/13/4 102/131/4
f 96/138/4 97/36/4 94/139/4
f 92/15/4 90/72/4 93/14/4
f 97/36/4 100/130/4 103/26/4
f 74/140/4 102/131/4 88/141/4
f 86/136/4 78/142/4 87/143/4
f 99/132/4 73/144/4 78/142/4
f 102/131/4 89/145/4 88/141/4
f 75/133/4 74/140/4 73/144/4
f 92/15/4 104/28/4 101/135/4
f 105/146/3 81/147/3 58/148/3
f 46/61/1 89/149/1 20/150/1
f 37/37/1 73/107/1 8/1/1
f 108/151/1 104/152/1 106/152/1
f 62/16/5 80/24/5 25/24/5
f 34/153/7 108/154/7 50/155/7
f 61/156/8 69/157/8 38/158/8
f 52/159/9 105/160/9 47/161/9
f 44/162/10 60/160/10 65/161/10
f 52/163/4 2/164/4 13/165/4
f 2/166/5 108/154/5 83/167/5
f 106/168/3 13/169/3 77/170/3
f 83/107/11 106/171/11 77/172/11
f 95/173/12 72/174/12 94/175/12
f 28/158/6 69/157/6 95/176/6
f 72/76/1 31/177/1 94/76/1
f 28/164/4 34/178/4 38/179/4
f 8/180/4 65/165/4 11/163/4
f 11/181/3 60/160/3 74/182/3
f 74/172/13 107/183/13 73/107/13
f 107/184/5 8/167/5 73/166/5
f 58/185/6 25/162/6 80/186/6
f 29/161/1 105/160/1 93/187/1
f 58/188/14 93/189/14 105/121/14
f 8/1/1 11/93/1 12/2/1
f 40/4/2 1/190/2 63/5/2
f 55/7/3 96/20/3 94/8/3
f 5/10/4 23/52/4 65/11/4
f 43/13/2 27/115/2 30/14/2
f 62/16/5 25/24/5 27/17/5
f 18/19/3 85/191/3 96/20/3
f 14/21/6 13/192/6 2/22/6
f 25/24/5 29/69/5 30/25/5
f 51/26/2 7/35/2 9/27/2
f 31/29/3 28/193/3 26/30/3
f 63/5/2 1/190/2 12/32/2
f 35/34/2 4/119/2 7/35/2
f 37/37/1 8/1/1 1/3/1
f 7/35/2 4/119/2 24/39/2
f 60/40/6 82/40/6 75/41/6
f 44/42/4 47/194/4 29/43/4
f 36/36/2 7/35/2 51/26/2
f 38/46/4 34/195/4 6/47/4
f 55/7/3 31/9/3 32/49/3
f 6/51/4 10/112/4 23/52/4
f 41/53/6 13/192/6 14/21/6
f 33/55/6 39/74/6 18/56/6
f 67/58/3 22/71/3 21/59/3
f 46/61/1 20/150/1 19/62/1
f 54/64/5 16/64/5 15/65/5
f 42/66/2 19/145/2 68/67/2
f 29/69/5 93/69/5 90/64/5
f 67/58/3 86/79/3 87/70/3
f 48/15/2 30/14/2 56/72/2
f 3/23/6 2/22/6 39/74/6
f 69/75/5 98/75/5 97/76/5
f 53/77/2 32/83/2 36/36/2
f 28/78/3 95/196/3 86/79/3
f 22/80/1 37/37/1 40/38/1
f 26/82/2 35/34/2 36/36/2
f 11/84/1 74/97/1 88/85/1
f 21/87/2 40/4/2 70/6/2
f 9/27/2 48/15/2 59/73/2
f 23/89/4 10/197/4 47/90/4
f 39/74/6 84/108/6 85/92/6
f 12/32/2 42/66/2 71/68/2
f 11/93/1 46/61/1 42/63/1
f 16/94/6 41/53/6 45/54/6
f 41/96/6 76/85/6 77/97/6
f 24/39/2 43/13/2 48/15/2
f 49/28/2 59/73/2 45/102/2
f 53/77/2 57/45/2 33/104/2
f 59/73/2 56/72/2 15/106/2
f 39/74/6 2/22/6 83/107/6
f 29/69/5 54/64/5 56/65/5
f 18/19/3 55/7/3 53/50/3
f 57/45/2 51/26/2 3/110/2
f 3/110/2 51/26/2 49/28/2
f 50/111/4 52/198/4 10/112/4
f 22/80/1 87/199/1 78/113/1
f 20/16/5 89/16/5 79/16/5
f 66/33/2 71/68/2 43/13/2
f 64/88/2 70/6/2 35/34/2
f 16/94/6 91/149/6 76/114/6
f 43/13/2 71/68/2 68/67/2
f 28/78/3 67/58/3 64/60/3
f 98/118/4 97/36/4 103/26/4
f 103/26/4 104/28/4 92/15/4
f 92/15/4 81/13/4 82/117/4
f 82/117/4 75/133/4 98/118/4
f 98/118/4 103/26/4 92/15/4
f 54/64/5 90/64/5 91/64/5
f 4/119/2 63/5/2 66/33/2
f 20/16/5 62/16/5 68/18/5
f 108/122/2 72/200/2 69/201/2
f 69/201/2 107/202/2 60/120/2
f 60/120/2 58/188/2 105/121/2
f 105/121/2 106/203/2 108/122/2
f 108/122/2 69/201/2 60/120/2
f 70/6/2 63/5/2 4/119/2
f 84/129/4 83/110/4 103/26/4
f 83/110/4 77/103/4 104/28/4
f 81/13/4 80/115/4 79/67/4
f 76/134/4 91/106/4 90/72/4
f 81/13/4 92/15/4 93/14/4
f 95/82/4 94/139/4 97/36/4
f 95/82/4 98/118/4 99/132/4
f 85/137/4 84/129/4 100/130/4
f 77/103/4 76/134/4 101/135/4
f 96/138/4 100/130/4 97/36/4
f 92/15/4 101/135/4 90/72/4
f 74/140/4 82/117/4 102/131/4
f 86/136/4 99/132/4 78/142/4
f 99/132/4 75/133/4 73/144/4
f 102/131/4 79/67/4 89/145/4
f 75/133/4 82/117/4 74/140/4
f 105/146/3 92/146/3 81/147/3
f 46/61/1 88/114/1 89/149/1
f 37/37/1 78/113/1 73/107/1
f 108/151/1 103/204/1 104/152/1
f 62/16/5 79/16/5 80/24/5
f 34/153/7 72/205/7 108/154/7
f 61/156/8 107/184/8 69/157/8
f 52/159/9 106/168/9 105/160/9
f 44/162/10 58/185/10 60/160/10
f 52/163/4 50/180/4 2/164/4
f 2/166/5 50/155/5 108/154/5
f 106/168/3 52/159/3 13/169/3
f 83/107/11 108/183/11 106/171/11
f 95/173/12 69/206/12 72/174/12
f 28/158/6 38/158/6 69/157/6
f 72/76/1 34/76/1 31/177/1
f 28/164/4 31/165/4 34/178/4
f 8/180/4 61/164/4 65/165/4
f 11/181/3 65/161/3 60/160/3
f 74/172/13 60/171/13 107/183/13
f 107/184/5 61/156/5 8/167/5
f 58/185/6 44/162/6 25/162/6
f 29/161/1 47/161/1 105/160/1
f 58/188/14 80/207/14 93/189/14
