# Blender 4.4.3
# www.blender.org
mtllib front_down.mtl
o FrontDown
v 6.000000 -1.000000 -1.500002
v 6.000000 -0.000000 -1.500002
v 6.000001 -2.250000 1.499998
v 6.000001 -1.250000 1.499998
v -6.000001 -1.000000 -1.499998
v -6.000001 -0.000000 -1.499998
v -6.000000 -2.250000 1.500002
v -6.000000 -1.250000 1.500002
v 1.500001 -1.250000 1.499999
v 1.500001 -1.250000 1.499999
v -1.499999 -1.250000 1.500001
v -1.499999 -1.250000 1.500001
v 1.499999 -0.000000 -1.500001
v 1.499999 -0.000000 -1.500001
v -1.500001 -0.000000 -1.499999
v -1.500001 -0.000000 -1.499999
v 6.000001 -2.250000 5.999998
v 6.000001 -1.250000 5.999998
v -6.000000 -1.250000 6.000002
v -1.499999 -1.250000 6.000001
v -6.000000 -2.250000 6.000002
v 1.500001 -1.250000 5.999999
v 1.500001 -1.250000 5.999999
v -1.499999 -1.250000 6.000001
v 6.000000 -1.000000 -6.000002
v 6.000000 -0.000000 -6.000002
v -6.000001 -1.000000 -5.999998
v -6.000001 -0.000000 -5.999998
v 1.499999 -0.000000 -6.000001
v 1.499999 -0.000000 -6.000001
v -1.500001 -0.000000 -5.999999
v -1.500001 -0.000000 -5.999999
v -6.000000 3.750000 1.500002
v -1.499999 3.750000 1.500001
v -6.000001 5.000000 -1.499998
v -1.500001 5.000000 -1.499999
v 6.000000 5.000000 -1.500002
v 6.000001 3.750000 1.499998
v 1.500001 3.750000 1.499999
v 1.499999 5.000000 -1.500001
v -1.500001 -0.000000 -5.999999
v -6.000001 -0.000000 -5.999998
v 6.000000 -0.000000 -6.000002
v 1.499999 -0.000000 -6.000001
v 6.000000 -1.000000 -6.000002
v 1.499999 -0.000000 -6.000001
v -1.500001 -0.000000 -5.999999
v -6.000001 -1.000000 -5.999998
v 5.900001 -1.250000 1.499998
v 5.899999 -0.000000 -1.500002
v 5.900001 -1.250000 5.999998
v 5.899999 -0.000000 -6.000002
v 5.900001 3.750000 1.499998
v 5.899999 5.000000 -1.500002
v 5.899999 -0.000000 -6.000002
v -5.899999 -1.250000 1.500002
v -5.900001 -0.000000 -1.499998
v -5.899999 -1.250000 6.000002
v -5.900001 -0.000000 -5.999998
v -5.899999 3.750000 1.500002
v -5.900001 5.000000 -1.499998
v -5.900001 -0.000000 -5.999998
v 6.000000 5.000000 -1.500002
v 6.000000 5.000000 -6.000002
v 5.899999 5.000000 -1.500002
v 5.899999 5.000000 -6.000002
v -6.000001 5.000000 -5.999999
v -6.000001 5.000000 -1.499998
v -5.900001 5.000000 -5.999999
v -5.900001 5.000000 -1.499998
v -6.000000 3.750000 1.500002
v -6.000000 3.750000 6.000001
v -5.899999 3.750000 1.500002
v -5.899999 3.750000 6.000001
v 6.000001 3.750000 5.999998
v 6.000001 3.750000 1.499998
v 5.900001 3.750000 1.499998
v 5.900001 3.750000 5.999998
v 5.899999 4.900000 -1.500002
v 5.899999 4.900000 -6.000002
v 6.000000 4.900000 -1.500002
v 6.000000 4.900000 -6.000002
v 6.000000 4.900000 -1.500002
v 6.000001 3.650000 1.499998
v 1.500001 3.650000 1.499999
v 1.499999 4.900000 -1.500001
v 5.899999 4.900000 -1.500002
v 5.900001 3.650000 1.499998
v -1.499999 3.650000 1.500001
v -6.000000 3.650000 1.500002
v -6.000001 4.900000 -1.499998
v -1.500001 4.900000 -1.499999
v -5.900001 4.900000 -1.499998
v -5.899999 3.650000 1.500002
v -5.900001 4.900000 -5.999999
v -5.900001 4.900000 -1.499998
v -6.000001 4.900000 -1.499998
v -6.000001 4.900000 -5.999999
v 5.900001 3.650000 1.499998
v 6.000001 3.650000 1.499998
v 5.900001 3.650001 5.999998
v 6.000001 3.650001 5.999998
v -6.000000 3.650001 6.000001
v -6.000000 3.650000 1.500002
v -5.899999 3.650000 1.500002
v -5.899999 3.650001 6.000001
vn 1.0000 -0.0000 -0.0000
vn -0.0000 -0.9239 0.3827
vn -0.0000 -1.0000 -0.0000
vn -0.1464 -0.9239 0.3535
vn -1.0000 -0.0000 -0.0000
vn -0.0000 -0.0000 -1.0000
vn -0.0000 -0.9806 -0.1961
vn -0.0000 -0.9512 -0.3086
vn -0.0000 1.0000 -0.0000
vn -0.0000 0.5409 -0.8411
vn -0.0000 0.7823 -0.6229
vn -0.0000 -0.6429 -0.7659
vn -0.0000 0.9952 0.0976
vn -0.0000 -0.0000 1.0000
vn -0.0000 0.4472 0.8944
vn -0.0000 0.4472 -0.8944
vn -0.0000 -0.0000 -0.0000
vn -0.0000 0.9231 0.3846
vn -0.0000 -0.4472 -0.8944
vn -0.0000 -0.3162 -0.9487
vn -0.0000 -0.9239 -0.3827
vn 0.1464 -0.9239 -0.3535
vn -0.0000 0.1152 -0.9933
vn -0.0000 0.7071 -0.7071
vn -0.0000 -0.9231 -0.3846
vn -0.0000 -0.5770 -0.8167
vn -0.0000 0.8077 -0.5897
vn -0.0000 0.5921 -0.8059
vn -0.0000 -0.9267 -0.3759
vn -0.0000 0.8944 -0.4472
vn -0.0000 -0.8945 -0.4471
vn -0.0000 -0.9806 -0.1960
vt 0.592716 0.497681
vt 0.506078 0.490461
vt 0.506078 0.461581
vt 0.500000 0.656250
vt 0.500000 0.625000
vt 0.493922 0.490461
vt 0.407284 0.497681
vt 0.493922 0.461581
vt 0.502717 0.000000
vt 0.439877 0.000000
vt 0.703935 0.413365
vt 0.357383 0.449464
vt 0.357383 0.413365
vt 0.592716 0.668069
vt 0.506078 0.634857
vt 0.506078 0.631969
vt 1.000000 0.656250
vt 1.000000 0.625000
vt 0.132759 0.611731
vt 0.080179 0.559151
vt 0.132759 0.559151
vt 0.255278 0.396038
vt 0.667674 0.430693
vt 0.515191 0.430693
vt 0.731909 0.493922
vt 0.385358 0.623879
vt 0.385358 0.493922
vt 0.623879 0.631969
vt 0.493922 0.634857
vt 0.493922 0.631969
vt 0.080179 0.611731
vt 0.001309 0.559151
vt 0.078924 0.555481
vt 0.156629 0.476010
vt 0.156629 0.555481
vt 0.623879 0.490461
vt 0.376121 0.461581
vt 0.062500 0.625000
vt 0.437500 0.656250
vt 1.000000 0.500000
vt 0.062500 0.656250
vt 0.500000 0.500000
vt 0.062840 0.000000
vt 0.579239 0.656250
vt 0.255278 0.647288
vt 0.258743 0.603969
vt 0.258743 0.647288
vt 0.502717 0.125679
vt 0.407284 0.668069
vt 0.407284 0.670956
vt 0.667674 0.647288
vt 0.515191 0.603969
vt 0.667674 0.603969
vt 0.411226 0.647288
vt 0.515191 0.647288
vt 0.000000 0.377038
vt 0.081053 0.787461
vt 0.000000 1.000000
vt 0.000000 0.787461
vt 0.211629 0.611731
vt 0.407284 0.526560
vt 0.277327 0.497681
vt 0.385358 0.407284
vt 0.731909 0.277327
vt 0.731909 0.407284
vt 0.439877 0.125679
vt 0.935096 0.656250
vt 0.722673 0.526560
vt 0.592716 0.526560
vt 0.078924 0.476010
vt 0.001220 0.555481
vt 0.001220 0.476010
vt 0.156629 0.476010
vt 0.078924 0.555481
vt 0.671140 0.647288
vt 0.671140 0.603969
vt 0.388245 0.722673
vt 0.729021 0.592716
vt 0.729021 0.722673
vt 0.411226 0.603969
vt 0.502717 0.377038
vt 0.731909 0.592716
vt 0.722673 0.668069
vt 0.592716 0.670956
vt 0.360271 0.619852
vt 0.357383 0.622740
vt 0.357383 0.619852
vt 0.388245 0.592716
vt 0.385358 0.722673
vt 0.385358 0.592716
vt 0.277327 0.670956
vt 0.277327 0.668069
vt 0.703935 0.619852
vt 0.701048 0.622740
vt 0.701048 0.619852
vt 0.385358 0.506078
vt 0.388246 0.376121
vt 0.388246 0.506078
vt 0.258743 0.600503
vt 0.255278 0.603969
vt 0.255278 0.600503
vt 0.729021 0.506078
vt 0.731909 0.376121
vt 0.731909 0.506078
vt 0.376121 0.634857
vt 0.376121 0.631969
vt 0.671140 0.600503
vt 0.667674 0.600503
vt 0.360271 0.478343
vt 0.357383 0.478343
vt 0.097928 0.374282
vt 0.002310 0.446382
vt 0.002310 0.374282
vt 0.098127 0.364148
vt 0.003078 0.469997
vt 0.003078 0.364148
vt 0.189896 0.390896
vt 0.095040 0.467445
vt 0.095040 0.390896
vt 0.007436 0.376074
vt 0.065825 0.447114
vt 0.007436 0.471443
vt 0.007436 0.376074
vt 0.065825 0.447114
vt 0.065825 0.351745
vt 0.703935 0.478343
vt 0.701048 0.478343
vt 0.277327 0.526560
vt 0.002310 0.374282
vt 0.097928 0.446382
vt 0.097928 0.374282
vt 0.671140 0.430693
vt 0.376121 0.490461
vt 0.097928 0.374282
vt 0.002310 0.446382
vt 0.002310 0.374282
vt 0.258743 0.430693
vt 0.255278 0.430693
vt 0.002310 0.374282
vt 0.097928 0.446382
vt 0.097928 0.374282
vt 0.729021 0.376121
vt 0.183556 0.458211
vt 0.102281 0.399027
vt 0.183556 0.399027
vt 0.703935 0.449464
vt 0.671140 0.396038
vt 0.000000 0.656250
vt 0.411226 0.430693
vt 0.437500 0.625000
vt 0.731909 0.623879
vt 0.623879 0.634857
vt 0.001309 0.611731
vt 0.623879 0.461581
vt 0.357383 0.449464
vt 0.703935 0.449464
vt 0.573978 0.478343
vt 0.081053 1.000000
vt 0.211629 0.559151
vt 0.385358 0.277327
vt 0.722673 0.497681
vt 0.156629 0.555481
vt 0.731909 0.722673
vt 0.722673 0.670956
vt 0.360271 0.622740
vt 0.703935 0.622740
vt 0.385358 0.376121
vt 0.097928 0.446382
vt 0.098127 0.469997
vt 0.189896 0.467445
vt 0.065825 0.351745
vt 0.007436 0.471443
vt 0.097928 0.446382
vt 0.002310 0.446382
vt 0.102281 0.458211
s 1
usemtl Front
f 1/1/1 4/2/1 3/3/1
s 0
f 10/4/2 23/5/3 22/4/4
s 1
f 8/6/5 5/7/5 7/8/5
s 0
f 62/9/6 32/10/6 59/9/3
s 1
f 7/11/7 1/12/7 3/13/7
f 83/14/1 38/15/1 84/16/1
s 0
f 13/17/8 9/5/9 10/4/10
f 11/4/11 15/18/3 16/17/12
s 1
f 15/19/13 9/20/13 14/21/13
f 21/22/14 51/23/14 23/24/15
f 3/25/7 21/26/3 7/27/7
f 103/28/5 71/29/5 104/30/5
f 12/31/13 23/32/9 9/20/13
f 10/33/9 51/34/9 49/35/9
f 7/8/5 19/36/5 8/6/5
f 4/2/1 17/37/1 3/3/1
s 0
f 12/5/2 20/4/3 24/5/4
s 1
f 31/38/16 29/39/3 52/4/6
s 0
f 43/17/17 25/40/17 26/17/17
f 46/39/3 29/39/3 30/39/3
f 41/41/3 31/41/3 32/41/3
f 45/42/6 27/40/6 25/42/9
f 48/40/17 28/17/17 27/40/17
f 47/10/6 30/43/6 31/10/3
f 55/4/6 26/4/6 52/44/3
s 1
f 35/45/18 60/46/18 61/47/18
f 91/48/6 61/48/6 93/48/6
f 91/49/5 33/29/5 35/50/5
f 54/51/18 39/52/18 53/53/18
f 36/54/18 39/52/18 40/55/18
f 84/56/14 53/56/14 88/56/14
f 79/57/3 95/58/19 80/59/20
f 14/21/13 47/60/9 15/19/13
f 6/61/5 48/62/5 5/7/5
f 5/63/7 45/64/3 1/65/7
s 0
f 16/66/21 47/10/3 41/10/22
f 14/17/21 44/17/3 46/67/22
s 1
f 1/1/1 43/68/1 2/69/1
f 16/70/9 62/71/9 57/72/9
f 50/73/9 44/74/9 13/70/9
f 87/17/6 37/17/6 83/17/6
f 37/75/18 53/53/18 38/76/18
s 0
f 44/17/6 52/44/6 29/17/3
s 1
f 99/56/6 76/56/6 100/56/6
f 69/77/23 65/78/9 66/79/24
f 36/54/18 60/46/18 34/80/18
f 56/71/9 20/70/9 11/33/9
f 94/81/14 33/81/14 90/81/14
s 0
f 42/9/6 59/9/6 28/9/3
s 1
f 63/82/9 66/79/24 65/78/9
f 81/17/14 65/17/14 79/17/14
f 82/83/1 63/84/1 81/14/1
f 80/85/20 64/86/6 82/87/6
f 70/88/9 67/89/9 68/90/9
f 97/49/5 67/91/5 98/92/5
f 96/48/14 68/48/14 97/48/14
f 98/93/6 69/94/23 95/95/19
f 71/96/9 74/97/9 73/98/9
f 106/99/14 72/100/14 103/101/14
f 104/81/6 73/81/6 105/81/6
f 77/102/9 75/103/9 76/104/9
f 100/16/1 75/105/1 102/106/1
f 102/107/14 78/53/14 101/108/14
f 55/109/6 82/87/6 43/110/6
f 43/68/1 81/14/1 2/69/1
f 2/17/14 79/17/14 50/17/14
f 50/111/5 80/112/5 55/113/5
f 49/114/14 85/115/14 10/116/14
f 50/17/6 83/17/6 2/17/6
f 13/117/6 87/118/6 50/119/6
f 4/56/14 88/56/14 49/56/14
f 13/120/5 85/121/5 86/122/5
f 2/69/1 84/16/1 4/2/1
f 56/81/14 90/81/14 8/81/14
f 57/117/6 92/118/6 16/119/6
f 16/123/1 89/124/1 11/125/1
f 6/61/5 90/30/5 91/49/5
f 6/48/6 93/48/6 57/48/6
f 11/114/14 94/115/14 56/116/14
f 42/126/6 95/95/6 62/127/6
f 57/48/14 97/48/14 6/48/14
f 6/61/5 98/92/5 42/128/5
f 62/129/1 96/130/1 57/131/1
f 18/132/14 101/108/14 51/23/14
f 4/2/1 102/106/1 18/133/1
f 51/134/5 99/135/5 49/136/5
f 49/56/6 100/56/6 4/56/6
f 8/81/6 105/81/6 56/81/6
f 58/137/14 103/101/14 19/138/14
f 56/139/1 106/140/1 58/141/1
f 19/36/5 104/30/5 8/6/5
f 101/57/3 105/58/3 99/59/3
f 78/142/9 73/98/9 74/97/9
f 78/53/14 106/99/14 101/108/14
f 85/143/25 92/144/25 86/145/25
f 1/1/1 2/69/1 4/2/1
s 0
f 10/4/3 9/5/22 23/5/21
s 1
f 8/6/5 6/61/5 5/7/5
s 0
f 62/9/6 41/10/9 32/10/6
s 1
f 7/11/7 5/146/7 1/12/7
f 83/14/1 37/84/1 38/15/1
s 0
f 13/17/3 14/18/26 9/5/27
f 11/4/9 12/5/28 15/18/29
s 1
f 15/19/13 12/31/13 9/20/13
f 58/137/14 19/138/14 21/22/14
f 21/22/14 17/147/14 18/132/14
f 21/22/14 18/132/14 51/23/14
s 0
f 24/38/9 20/41/6 58/148/9
s 1
f 24/149/15 58/137/14 21/22/14
s 0
f 51/4/9 22/39/3 23/150/30
s 1
f 23/24/15 24/149/15 21/22/14
f 3/25/7 17/151/3 21/26/3
f 103/28/5 72/152/5 71/29/5
f 12/31/13 24/153/9 23/32/9
f 10/33/9 22/70/9 51/34/9
f 7/8/5 21/154/5 19/36/5
f 4/2/1 18/133/1 17/37/1
s 0
f 12/5/3 11/4/22 20/4/21
s 1
f 52/109/6 26/110/6 25/155/6
f 25/155/6 27/156/6 28/126/6
f 25/155/6 28/126/6 59/127/6
s 0
f 59/148/3 32/41/9 31/38/31
s 1
f 25/155/6 59/127/6 31/157/16
f 52/109/6 25/155/6 31/157/16
s 0
f 31/38/31 30/150/9 29/39/14
f 43/17/17 45/40/17 25/40/17
f 46/39/3 44/39/3 29/39/3
f 41/41/3 47/41/3 31/41/3
f 45/42/6 48/40/3 27/40/6
f 48/40/17 42/17/17 28/17/17
f 47/10/6 46/43/9 30/43/6
f 55/4/6 43/4/3 26/4/6
s 1
f 35/45/18 33/100/18 60/46/18
f 91/48/6 35/48/6 61/48/6
f 91/49/5 90/30/5 33/29/5
f 54/51/18 40/55/18 39/52/18
f 36/54/18 34/80/18 39/52/18
f 84/56/14 38/56/14 53/56/14
f 79/57/3 96/158/3 95/58/19
f 14/21/13 46/159/9 47/60/9
f 6/61/5 42/128/5 48/62/5
f 5/63/32 48/160/3 45/64/3
s 0
f 16/66/3 15/66/4 47/10/2
f 14/17/3 13/17/4 44/17/2
s 1
f 1/1/1 45/161/1 43/68/1
f 16/70/9 41/74/9 62/71/9
f 50/73/9 55/162/9 44/74/9
f 87/17/6 54/17/6 37/17/6
f 37/75/18 54/51/18 53/53/18
s 0
f 44/17/6 55/4/9 52/44/6
s 1
f 99/56/6 77/56/6 76/56/6
f 69/77/9 70/88/9 65/78/9
f 36/54/18 61/47/18 60/46/18
f 56/71/9 58/72/9 20/70/9
f 94/81/14 60/81/14 33/81/14
s 0
f 42/9/6 62/9/3 59/9/6
s 1
f 63/82/9 64/163/9 66/79/24
f 81/17/14 63/17/14 65/17/14
f 82/83/1 64/164/1 63/84/1
f 80/85/20 66/165/24 64/86/6
f 70/88/9 69/77/9 67/89/9
f 97/49/5 68/50/5 67/91/5
f 96/48/14 70/48/14 68/48/14
f 98/93/6 67/166/6 69/94/23
f 71/96/9 72/167/9 74/97/9
f 106/99/14 74/46/14 72/100/14
f 104/81/6 71/81/6 73/81/6
f 77/102/9 78/142/9 75/103/9
f 100/16/1 76/15/1 75/105/1
f 102/107/14 75/76/14 78/53/14
f 55/109/6 80/85/20 82/87/6
f 43/68/1 82/83/1 81/14/1
f 2/17/14 81/17/14 79/17/14
f 50/111/5 79/168/5 80/112/5
f 49/114/14 88/169/14 85/115/14
f 50/17/6 87/17/6 83/17/6
f 13/117/6 86/170/6 87/118/6
f 4/56/14 84/56/14 88/56/14
f 13/120/5 10/171/5 85/121/5
f 2/69/1 83/14/1 84/16/1
f 56/81/14 94/81/14 90/81/14
f 57/117/6 93/170/6 92/118/6
f 16/123/1 92/172/1 89/124/1
f 6/61/5 8/6/5 90/30/5
f 6/48/6 91/48/6 93/48/6
f 11/114/14 89/169/14 94/115/14
f 42/126/6 98/93/6 95/95/6
f 57/48/14 96/48/14 97/48/14
f 6/61/5 97/49/5 98/92/5
f 62/129/1 95/135/1 96/130/1
f 18/132/14 102/107/14 101/108/14
f 4/2/1 100/16/1 102/106/1
f 51/134/5 101/173/5 99/135/5
f 49/56/6 99/56/6 100/56/6
f 8/81/6 104/81/6 105/81/6
f 58/137/14 106/99/14 103/101/14
f 56/139/1 105/174/1 106/140/1
f 19/36/5 103/28/5 104/30/5
f 101/57/3 106/158/3 105/58/3
f 78/142/9 77/102/9 73/98/9
f 78/53/14 74/46/14 106/99/14
f 85/143/25 89/175/25 92/144/25
f 69/94/23 80/85/20 95/95/19
f 69/94/23 66/165/24 80/85/20
